<svg xmlns="http://www.w3.org/2000/svg" aria-hidden="true" style="position:absolute;width:0;height:0;overflow:hidden">
    <defs>
        <symbol id="icon-girpinphonePC" viewBox="0 0 38 32">
            <path fill="#2f2e43" d="M21.802 31.83H11.086c-1.396 0-2.532-1.105-2.532-2.464V2.464C8.554 1.105 9.69 0 11.086 0h10.716c1.396 0 2.532 1.105 2.532 2.464v26.902c0 1.359-1.136 2.464-2.532 2.464v.001z" style="fill:var(--color1, #2f2e43)"/>
            <path fill="#fff" d="M21.813 31.165H11.075c-1.048 0-1.9-.83-1.9-1.849V2.363c0-1.019.853-1.849 1.9-1.849h10.738c1.048 0 1.9.83 1.9 1.849v26.953c0 1.019-.853 1.849-1.9 1.849z" style="fill:var(--color2, #fff)"/>
            <path fill="#2f2e43" d="M18.121 2.267h-3.417c-.394 0-.714-.312-.714-.695s.321-.695.714-.695h3.417c.394 0 .714.312.714.695s-.321.695-.714.695zM18.724 13.388l-1.062-.804s-1.212.368-1.243.383-1.881 4.189-1.881 4.189 4.738 2.359 4.391 2.129c-.346-.229-.275-3.339.047-3.745.323-.406.047-1.425.047-1.425l-.299-.727h-.002l.001-.001z" style="fill:var(--color1, #2f2e43)"/>
            <path fill="#f3a3a6" d="M15.788 15.269h1.44v2.223l-1.588-.508.148-1.716z" style="fill:var(--color3, #f3a3a6)"/>
            <path fill="#f0af2e" d="M18.92 20.535a6.246 6.246 0 0 1-3.813.273 6.211 6.211 0 0 1-1.088-.373l.092-.437.243-1.158.285-1.353.053-.255.126-.6.002-.008h2.881l.002.005.768 2.458.321 1.03.13.418-.001-.001z" style="fill:var(--color4, #f0af2e)"/>
            <path fill="#f0af2e" d="M19.902 20.035a6.083 6.083 0 0 1-1.634.721l-.496-2.005-.527-2.126h.001l.137-.001c.08 0 .191.001.319.005.308.011.715.041 1.033.122.246.062.438.153.494.288.055.133.282 1.156.576 2.538l.098.458h.001z" style="fill:var(--color4, #f0af2e)"/>
            <path fill="#f3a3a6" d="M17.031 15.883c.874 0 1.582-.689 1.582-1.539s-.708-1.539-1.582-1.539c-.874 0-1.582.689-1.582 1.539s.708 1.539 1.582 1.539z" style="fill:var(--color3, #f3a3a6)"/>
            <path fill="#2f2e43" d="M19.002 14.062v.002l-.388.065a3.069 3.069 0 0 0-.069-.231 2.276 2.276 0 0 0-.094-.232 1.17 1.17 0 0 0-.276-.384c-.364-.321-.767-.108-.821-.118-.071-.014-1.021.989-1.142 2.105a2.132 2.132 0 0 0-.007.375l.001.014c.025.381-.112.699-.314.958l-.007.008a2.159 2.159 0 0 1-.235.251c-.24.219-.511.378-.713.479a2.91 2.91 0 0 1-.306.134s-.257.47-.278 1.351c-.008.369.025.81.136 1.32.023.106.049.214.079.326.017.062.032.123.045.182a6.211 6.211 0 0 1-1.438-.694c.067-.156.132-.292.189-.4.039-.073.073-.133.101-.176.346-.537.11-1.47.11-1.47-.535-.459.094-1.47.094-1.47s-.111-1.348.22-1.608c.331-.261.346-.904.346-.904.583-2.466 2.487-1.991 2.487-1.991 2.396-.256 2.282 2.027 2.277 2.108l-.001.002z" style="fill:var(--color1, #2f2e43)"/>
            <path fill="#f0af2e" d="m16.077 16.634-.106.456-.162.697-.702 3.021a6.211 6.211 0 0 1-1.539-.599l.095-.449c.327-1.544.586-2.717.645-2.86.056-.136.234-.215.458-.258l.051-.009.049-.008c.263-.038.568-.035.807-.023.083.004.157.01.219.014l.091.008.094.01h-.001z" style="fill:var(--color4, #f0af2e)"/>
            <path fill="#2f2e43" d="M16.587 21.09a6.392 6.392 0 0 1-2.614-.559 6.342 6.342 0 0 1-.858-.47c-1.737-1.134-2.775-3.022-2.775-5.05 0-3.352 2.802-6.079 6.248-6.079s6.248 2.727 6.248 6.079c0 2.074-1.074 3.985-2.872 5.113a6.268 6.268 0 0 1-1.664.734 6.385 6.385 0 0 1-1.711.232l-.001-.001zm0-11.944c-3.323 0-6.027 2.631-6.027 5.865 0 1.957 1.001 3.778 2.677 4.873.124.081.253.159.385.231a5.997 5.997 0 0 0 1.511.589 6.185 6.185 0 0 0 3.746-.268c.335-.135.66-.3.964-.491 1.736-1.088 2.772-2.932 2.772-4.933 0-3.234-2.704-5.865-6.027-5.865h-.001zM0 31.909c0 .05.059.091.133.091h38.006c.073 0 .133-.04.133-.091s-.059-.091-.133-.091H.133c-.073 0-.133.04-.133.091z" style="fill:var(--color1, #2f2e43)"/>
            <path fill="#f3a3a6" d="M23.937 17.202c.117-.112.262-.195.421-.241l1.162-1.232.613.571-1.245 1.189a.967.967 0 0 1-.264.397c-.298.277-.693.348-.882.159s-.102-.567.195-.843h.001v-.001z" style="fill:var(--color3, #f3a3a6)"/>
            <path fill="#d5d5d6" d="m24.421 16.647.617.755 3.189-2.349.003-.005 1.863-3.384a1.143 1.143 0 0 0-.368-1.5c-.303-.206-.68-.264-1.033-.158s-.632.359-.764.695l-1.209 3.079-2.297 2.866z" style="fill:var(--color5, #d5d5d6)"/>
            <path fill="#f3a3a6" d="M29.671 8.821h-1.3v2.007l1.433-.458-.133-1.548z" style="fill:var(--color3, #f3a3a6)"/>
            <path fill="#f3a3a6" d="M27.121 7.987c0 .767.639 1.389 1.428 1.389s1.428-.622 1.428-1.389c0-.768-.639-1.389-1.428-1.389s-1.428.622-1.428 1.389z" style="fill:var(--color3, #f3a3a6)"/>
            <path fill="#2f2e43" d="m29.559 8.875.139.257.615-1.137c.37-1.103-.923-1.737-.923-1.737-.422-.483-1.27.082-1.27.082-1.223-.264-.632.739-.632.739s.417.009.417.337c0 .329.454.306.454.306l.356.606.197-.233c.731-.301.647.779.647.779z" style="fill:var(--color1, #2f2e43)"/>
            <path fill="#f3a3a6" d="M30.198 29.382h-1.153v1.592h1.153v-1.592z" style="fill:var(--color3, #f3a3a6)"/>
            <path fill="#2f2e43" d="M27.922 31.938c.506 0 1.245-.051 1.251-.052.198.017 1.185.093 1.234-.127a.912.912 0 0 0-.031-.442c-.095-.918-.131-.929-.151-.935-.034-.01-.132.036-.291.136l-.01.006-.002.011c-.003.014-.073.351-.408.3-.229-.035-.303-.085-.327-.109a.15.15 0 0 0 .061-.049c.025-.038.029-.086.013-.144-.043-.152-.172-.378-.177-.387l-.015-.026-1.311.861-.81.225a.206.206 0 0 0-.135.116.2.2 0 0 0 .053.229c.147.129.44.349.746.376.081.008.189.01.311.01h.001z" style="fill:var(--color1, #2f2e43)"/>
            <path fill="#f3a3a6" d="m32.64 26.995-.889.715 1.043 1.227.889-.715-1.043-1.227z" style="fill:var(--color3, #f3a3a6)"/>
            <path fill="#2f2e43" d="M32.561 30.375c.39-.314.926-.812.93-.816.164-.109.974-.663.867-.863-.097-.184-.287-.305-.313-.322-.675-.649-.708-.635-.729-.627-.033.013-.078.109-.136.285l-.003.011.006.01c.008.013.174.317-.117.484-.2.115-.289.123-.323.119a.137.137 0 0 0 .014-.076c-.006-.044-.034-.084-.084-.118a2.335 2.335 0 0 0-.391-.189l-.028-.011-.446 1.476-.476.676a.196.196 0 0 0-.027.174c.026.083.102.14.191.144.197.008.567-.004.821-.173a4.04 4.04 0 0 0 .246-.185zM27.138 17.103l1.758 12.726h1.319l.879-12.726h-3.956z" style="fill:var(--color1, #2f2e43)"/>
            <path fill="#2f2e43" d="m30.544 24.054 2.626 3.315-1.124.903-4.506-4.17-.403-6.999.806.701 2.601 6.25z" style="fill:var(--color1, #2f2e43)"/>
            <path fill="#d5d5d6" d="m27.943 9.617-.806 7.486h3.956l.307-2.43a6.854 6.854 0 0 0-.897-4.333l-.607-1.032-1.954.309z" style="fill:var(--color5, #d5d5d6)"/>
            <path fill="#f3a3a6" d="M27.588 19.23a.974.974 0 0 1 .281-.389l.532-1.591.801.273-.625 1.584a.938.938 0 0 1-.071.468c-.153.372-.482.597-.735.501s-.334-.474-.182-.846h-.001z" style="fill:var(--color3, #f3a3a6)"/>
            <path fill="#d5d5d6" d="m27.794 18.526.883.437 1.9-3.424v-.006l.253-3.831a1.168 1.168 0 0 0-.974-1.216 1.207 1.207 0 0 0-1.007.274 1.14 1.14 0 0 0-.399.942l.213 3.289-.868 3.534z" style="fill:var(--color5, #d5d5d6)"/>
        </symbol>
        <symbol id="icon-WomenPC" viewBox="0 0 47 32">
            <path fill="#f2f2f2" d="M46.082 29.1c-.321 1.111-1.258 1.889-2.236 2.55-.136.092-.273.182-.41.27l-.003.002a.127.127 0 0 0-.019.013l-.084.054.015.007s.015.008-.001.001l-.015-.006c-.568-.229-1.146-.474-1.581-.902-.452-.445-.715-1.142-.471-1.727a1.155 1.155 0 0 1 .184-.299 1.192 1.192 0 0 1 1.136-.419 1.2 1.2 0 0 1 .923.783c.072-.667-.48-1.227-1.01-1.639s-1.134-.861-1.237-1.525c-.057-.369.071-.727.306-1.014a1.752 1.752 0 0 1 1.146-.628c.814-.084 1.605.346 2.197.911.952.909 1.528 2.305 1.163 3.569z" style="fill:var(--color6, #f2f2f2)"/>
            <path fill="#fff" d="M44.551 27.646c.156.243.276.507.356.784.068.248.098.504.089.761a3.296 3.296 0 0 1-.433 1.502c-.198.348-.439.67-.718.957-.136.092-.273.182-.41.271l-.003.002a.127.127 0 0 0-.019.013l-.084.054s.03.015.014.008l-.015-.006a2.623 2.623 0 0 0-.841-2.26 2.66 2.66 0 0 0-1.089-.585c.02-.028.041-.055.063-.082a2.734 2.734 0 0 1 1.673 1.345c.242.464.346.988.3 1.509l.069-.064c.432-.402.815-.863 1.074-1.394.225-.451.336-.949.322-1.453-.021-.549-.24-1.057-.557-1.499a6.424 6.424 0 0 0-1.221-1.255 7.355 7.355 0 0 0-1.518-.935c-.012-.006-.022-.016-.027-.028s-.005-.026 0-.039a.047.047 0 0 1 .022-.026c.005-.002.011-.003.017-.003s.012.002.017.005l.199.094a7.429 7.429 0 0 1 1.529 1.006c.45.383.874.82 1.19 1.321z" style="fill:var(--color2, #fff)"/>
            <path fill="#3f3d56" d="M39.124 0H.554A.554.554 0 0 0 0 .553v26.082a.556.556 0 0 0 .554.553h38.57a.548.548 0 0 0 .421-.194l.012-.015a.54.54 0 0 0 .121-.344V.553A.553.553 0 0 0 39.123 0zm.397 26.635a.397.397 0 0 1-.396.395H.555a.397.397 0 0 1-.396-.395V.553A.394.394 0 0 1 .555.158h38.57a.397.397 0 0 1 .396.395v26.082z" style="fill:var(--color7, #3f3d56)"/>
            <path fill="#3f3d56" d="M39.599 2.216H.079v.158h39.52v-.158zM1.425 1.66a.475.475 0 1 0 0-.95.475.475 0 0 0 0 .95zM2.792 1.66a.475.475 0 1 0 0-.95.475.475 0 0 0 0 .95zM4.158 1.66a.475.475 0 1 0 0-.95.475.475 0 0 0 0 .95z" style="fill:var(--color7, #3f3d56)"/>
            <path fill="#f0af2e" d="M25.596 11.12a1.28 1.28 0 1 1 1.066-1.99 1.276 1.276 0 0 1-.16 1.615c-.24.24-.566.375-.906.375zm0-2.438a1.164 1.164 0 0 0-1.072.715 1.152 1.152 0 0 0 .252 1.262 1.166 1.166 0 0 0 1.264.251 1.163 1.163 0 0 0 .717-1.07 1.157 1.157 0 0 0-1.16-1.158z" style="fill:var(--color4, #f0af2e)"/>
            <path fill="#f0af2e" d="M25.475 10.305a.13.13 0 0 1-.076-.025l-.001-.001-.287-.219a.128.128 0 0 1 .154-.202l.186.142.439-.572c.01-.013.023-.024.037-.033s.031-.014.047-.016a.126.126 0 0 1 .095.025.128.128 0 0 1 .024.178l-.517.672a.125.125 0 0 1-.102.05z" style="fill:var(--color4, #f0af2e)"/>
            <path fill="#e6e6e6" d="M29.264 11.12a1.28 1.28 0 1 1 1.066-1.99 1.276 1.276 0 0 1-.16 1.615c-.24.24-.566.375-.906.375zm0-2.438a1.164 1.164 0 0 0-1.072.715 1.152 1.152 0 0 0 .252 1.262 1.162 1.162 0 0 0 1.981-.819 1.157 1.157 0 0 0-1.16-1.158z" style="fill:var(--color8, #e6e6e6)"/>
            <path fill="#e6e6e6" d="M29.725 10.283a.083.083 0 0 1-.116 0l-.308-.307a.036.036 0 0 0-.052 0l-.308.307a.083.083 0 0 1-.116 0 .083.083 0 0 1 0-.116l.308-.307a.036.036 0 0 0 0-.052l-.308-.307a.083.083 0 0 1 0-.116.083.083 0 0 1 .116 0l.308.307a.036.036 0 0 0 .052 0l.308-.307a.083.083 0 0 1 .116 0 .083.083 0 0 1 0 .116l-.308.307a.036.036 0 0 0 0 .052l.308.307c.015.015.024.036.024.058s-.009.042-.024.058z" style="fill:var(--color8, #e6e6e6)"/>
            <path fill="#f0af2e" d="M25.596 15.181a1.28 1.28 0 1 1 1.066-1.99 1.276 1.276 0 0 1-.16 1.615c-.24.24-.566.375-.906.375zm0-2.437a1.164 1.164 0 0 0-1.072.715 1.152 1.152 0 0 0 .252 1.262 1.166 1.166 0 0 0 1.264.251 1.15 1.15 0 0 0 .377-1.887 1.165 1.165 0 0 0-.82-.34z" style="fill:var(--color4, #f0af2e)"/>
            <path fill="#f0af2e" d="M25.475 14.367a.13.13 0 0 1-.076-.025l-.001-.001-.287-.219a.128.128 0 0 1 .154-.202l.186.142.439-.572c.01-.013.023-.024.037-.033s.031-.014.047-.016a.126.126 0 0 1 .095.025.128.128 0 0 1 .024.178l-.517.672a.125.125 0 0 1-.102.05z" style="fill:var(--color4, #f0af2e)"/>
            <path fill="#e6e6e6" d="M29.264 15.181a1.28 1.28 0 1 1 1.066-1.99 1.276 1.276 0 0 1-.16 1.615c-.24.24-.566.375-.906.375zm0-2.437a1.164 1.164 0 0 0-1.072.715 1.152 1.152 0 0 0 .252 1.262 1.162 1.162 0 0 0 1.981-.818 1.157 1.157 0 0 0-1.16-1.158z" style="fill:var(--color8, #e6e6e6)"/>
            <path fill="#e6e6e6" d="M29.725 14.344a.083.083 0 0 1-.116 0l-.308-.307a.036.036 0 0 0-.052 0l-.308.307a.083.083 0 0 1-.116 0 .083.083 0 0 1 0-.116l.308-.307a.036.036 0 0 0 0-.052l-.308-.307a.083.083 0 0 1 0-.116.083.083 0 0 1 .116 0l.308.307a.036.036 0 0 0 .052 0l.308-.307a.083.083 0 0 1 .116 0 .083.083 0 0 1 0 .116l-.308.307a.036.036 0 0 0 0 .052l.308.307c.015.015.024.036.024.058s-.009.042-.024.058zM25.596 19.242a1.28 1.28 0 1 1 1.066-1.99 1.276 1.276 0 0 1-.16 1.615c-.24.24-.566.375-.906.375zm0-2.437a1.164 1.164 0 0 0-1.072.715 1.152 1.152 0 0 0 .252 1.262 1.166 1.166 0 0 0 1.264.251 1.163 1.163 0 0 0 .717-1.07 1.157 1.157 0 0 0-1.16-1.158z" style="fill:var(--color8, #e6e6e6)"/>
            <path fill="#e6e6e6" d="M25.475 18.428a.13.13 0 0 1-.076-.025l-.001-.001-.287-.219a.128.128 0 0 1 .154-.202l.186.142.439-.572c.01-.013.023-.024.037-.033s.031-.014.047-.016a.126.126 0 0 1 .095.025.128.128 0 0 1 .024.178l-.517.672a.125.125 0 0 1-.102.05zM29.264 19.242a1.28 1.28 0 1 1 1.066-1.99 1.276 1.276 0 0 1-.16 1.615c-.24.24-.566.375-.906.375zm0-2.437a1.164 1.164 0 0 0-1.072.715 1.152 1.152 0 0 0 .252 1.262 1.162 1.162 0 0 0 1.981-.819 1.157 1.157 0 0 0-1.16-1.158z" style="fill:var(--color8, #e6e6e6)"/>
            <path fill="#e6e6e6" d="M29.725 18.406a.083.083 0 0 1-.116 0l-.308-.307a.036.036 0 0 0-.052 0l-.308.307a.083.083 0 0 1-.116 0 .083.083 0 0 1 0-.116l.308-.307a.036.036 0 0 0 0-.052l-.308-.307a.083.083 0 0 1 0-.116.083.083 0 0 1 .116 0l.308.307a.036.036 0 0 0 .052 0l.308-.307a.083.083 0 0 1 .116 0c.015.015.024.036.024.058s-.009.042-.024.058l-.308.307a.036.036 0 0 0 0 .052l.308.307a.083.083 0 0 1 0 .116z" style="fill:var(--color8, #e6e6e6)"/>
            <path fill="#3f3d56" d="M46.857 31.981h-24.21c-.017 0-.033-.007-.045-.019s-.019-.028-.019-.045c0-.017.007-.033.019-.045s.028-.019.045-.019h24.21c.017 0 .033.007.045.019s.019.028.019.045-.007.033-.019.045a.064.064 0 0 1-.045.019z" style="fill:var(--color7, #3f3d56)"/>
            <path fill="#ffb8b8" d="M26.094 14.676a.642.642 0 0 0 .926-.317l2.269.075-.616-1.004-2.061.082a.641.641 0 0 0-.52 1.163zM38.89 19.581a.632.632 0 0 0 .05-.775.64.64 0 0 0-.2-.191l.472-2.216-1.099.43-.28 2.039a.64.64 0 0 0 .654.931.64.64 0 0 0 .402-.216zM33.574 31.133h-.779l-.371-2.999h1.15v2.999z" style="fill:var(--color9, #ffb8b8)"/>
            <path fill="#2f2e41" d="M33.772 31.886H31.26v-.032a.973.973 0 0 1 .977-.976h1.534v1.007z" style="fill:var(--color10, #2f2e41)"/>
            <path fill="#ffb8b8" d="M37.386 31.133h-.779l-.371-2.999h1.15v2.999z" style="fill:var(--color9, #ffb8b8)"/>
            <path fill="#2f2e41" d="M37.585 31.886h-2.512v-.032a.973.973 0 0 1 .977-.976h1.534v1.007zM33.655 29.567l-1.103-.044a.285.285 0 0 1-.274-.294l.311-10.17.02-.007c1.933-.698 3.532-.645 4.888.161l.015.009.186 9.905a.28.28 0 0 1-.175.268.3.3 0 0 1-.111.022h-.93c-.066 0-.13-.023-.182-.065s-.086-.1-.099-.165l-1.267-6.43a.093.093 0 0 0-.097-.076c-.023.001-.044.01-.061.025s-.027.036-.03.059l-.797 6.552a.285.285 0 0 1-.284.251h-.011z" style="fill:var(--color10, #2f2e41)"/>
            <path fill="#ffb8b8" d="M34.728 10.141c.862 0 1.561-.697 1.561-1.557s-.699-1.557-1.561-1.557-1.561.697-1.561 1.557.699 1.557 1.561 1.557z" style="fill:var(--color9, #ffb8b8)"/>
            <path fill="#ccc" d="M27.391 14.308a.29.29 0 0 1 0-.17l.162-.517a.287.287 0 0 1 .261-.2l2.048-.09 3.322-1.699a.919.919 0 0 1 .984.283.923.923 0 0 1 .114 1.016.912.912 0 0 1-.54.453l-2.036 1.178a2.952 2.952 0 0 1-2.046.342l-2.05-.401a.292.292 0 0 1-.218-.195zM38.823 18.146a.282.282 0 0 1-.17.007l-.525-.139a.29.29 0 0 1-.211-.251l-.178-2.038-1.843-3.24a.912.912 0 0 1 .241-.994.932.932 0 0 1 .662-.242.923.923 0 0 1 .827.604l1.266 1.979a2.94 2.94 0 0 1 .43 2.025l-.314 2.061a.28.28 0 0 1-.186.225z" style="fill:var(--color11, #ccc)"/>
            <path fill="#ccc" d="M33.021 11.349a2.665 2.665 0 0 1 2.131-.86l.078.005a2.658 2.658 0 0 1 2.389 2.086c.082.373.084.76.005 1.134a8.374 8.374 0 0 0 .222 4.304l.419 1.297a.29.29 0 0 1-.036.249.286.286 0 0 1-.22.123l-2.14.115-.548-.944v.974l-2.602.14h-.015a.286.286 0 0 1-.285-.308l.294-3.639-.369-2.471a2.663 2.663 0 0 1 .677-2.206z" style="fill:var(--color11, #ccc)"/>
            <path fill="#2f2e41" d="M35.812 10.07c-.145.083-.716.138-.756-.023l-.001-.004c-.028-.118-.005-.242.003-.363s-.004-.254-.087-.344c-.154-.166-.429-.078-.652-.12a.55.55 0 0 1-.414-.663.424.424 0 0 0-.44-.513c-.225.013-.469.081-.655-.086-.144-.129-.179-.464-.116-.647.107-.307.789-.467 1.087-.556a2.587 2.587 0 0 1 2.187.358c.188.132.364.299.444.514s.042.487-.139.629a1.158 1.158 0 0 1 .27 1.129c-.089.287-.516.563-.731.686z" style="fill:var(--color10, #2f2e41)"/>
            <path fill="#f0af2e" d="M14.273 10.15H4.28a.484.484 0 1 1 0-.97h9.993a.484.484 0 1 1 0 .97z" style="fill:var(--color4, #f0af2e)"/>
            <path fill="#3f3d56" d="M20.442 10.564H3.286c-.017 0-.033-.007-.045-.019s-.019-.028-.019-.045c0-.017.007-.033.019-.045s.028-.019.045-.019h17.156c.017 0 .033.007.045.019s.019.028.019.045c0 .017-.007.033-.019.045s-.028.019-.045.019z" style="fill:var(--color7, #3f3d56)"/>
            <path fill="#f0af2e" d="M14.273 14.212H4.28a.487.487 0 0 1-.344-.828.487.487 0 0 1 .344-.142h9.993a.484.484 0 1 1 0 .97z" style="fill:var(--color4, #f0af2e)"/>
            <path fill="#3f3d56" d="M20.442 14.625H3.286c-.017 0-.033-.007-.045-.019s-.019-.028-.019-.045c0-.017.007-.033.019-.045s.028-.019.045-.019h17.156c.017 0 .033.007.045.019s.019.028.019.045-.007.033-.019.045a.064.064 0 0 1-.045.019z" style="fill:var(--color7, #3f3d56)"/>
            <path fill="#f2f2f2" d="M14.273 18.273H4.28a.487.487 0 0 1-.344-.828.487.487 0 0 1 .344-.142h9.993a.484.484 0 1 1 0 .97z" style="fill:var(--color6, #f2f2f2)"/>
            <path fill="#3f3d56" d="M20.442 18.687H3.286c-.017 0-.033-.007-.045-.019s-.019-.028-.019-.045.007-.033.019-.045a.064.064 0 0 1 .045-.019h17.156c.017 0 .033.007.045.019s.019.028.019.045-.007.033-.019.045a.064.064 0 0 1-.045.019z" style="fill:var(--color7, #3f3d56)"/>
        </symbol>
        <symbol id="icon-girlPC" viewBox="0 0 44 32">
            <path fill="#f2f2f2" d="m19.357 28.215.067-1.513a4.881 4.881 0 0 1 2.278-.577c-1.094.895-.957 2.62-1.699 3.824a2.93 2.93 0 0 1-2.154 1.358l-.915.561a4.922 4.922 0 0 1 1.037-3.991c.256-.306.55-.579.874-.812.219.579.512 1.151.512 1.151z" style="fill:var(--color6, #f2f2f2)"/>
            <path fill="#e6e6e6" d="M25.176 7.164c.024.344.125.678.296.977.36.633.978 1.091 1.643 1.364.831.34 1.758.351 2.64.275.819-.07 1.63-.234 2.452-.268.636-.02 1.272-.005 1.907.046 1.23.087 2.456.25 3.673.446a40.66 40.66 0 0 1 1.079.187c.006.002.016.001.021.004.01.006-.04-.016-.01.009.042.044.08.093.112.145l.45.579c.129.166.249.368.415.499a.748.748 0 0 0 .832.058.832.832 0 0 0 .31-.352c.103-.19.227-.368.368-.532.535-.624 1.278-1.009 1.9-1.534.301-.244.558-.538.76-.869.172-.3.279-.632.314-.976.074-.698-.14-1.41-.5-2.005a4.01 4.01 0 0 0-1.624-1.488c-.753-.384-1.585-.571-2.42-.664-.886-.099-1.783-.099-2.673-.089a45.296 45.296 0 0 0-5.973.461c-.949.137-1.91.279-2.839.521-.821.213-1.639.547-2.252 1.152-.545.538-.924 1.273-.88 2.054z" style="fill:var(--color8, #e6e6e6)"/>
            <path fill="#fff" d="M29.513 4.357c-.886.164-1.814.364-2.557.849-.735.48-1.182 1.234-1.139 1.922.064 1.005 1.131 1.756 2.103 1.953.931.188 1.901.061 2.928-.074.227-.03.462-.061.695-.088 2.527-.292 7.273.608 7.474.647l.209.04 1.105 1.423c.252-.56.689-1.059 1.153-1.43.213-.17.434-.328.649-.48.547-.389 1.064-.757 1.349-1.262.621-1.1-.113-2.635-1.16-3.323-1.18-.776-2.735-.898-4.239-.914-.157-.002-.313-.002-.47-.002-2.716 0-5.427.248-8.098.741z" style="fill:var(--color2, #fff)"/>
            <path fill="#e6e6e6" d="M28.806 5.573a.228.228 0 0 1 .068-.164c.022-.022.047-.039.075-.05s.058-.018.089-.018h10.668c.062 0 .121.024.164.068s.068.103.068.164c0 .062-.024.121-.068.164s-.103.068-.164.068H29.038c-.061 0-.12-.025-.164-.068s-.068-.102-.068-.164zM28.806 6.999a.228.228 0 0 1 .068-.164.224.224 0 0 1 .075-.05.225.225 0 0 1 .089-.018h10.669a.24.24 0 0 1 .164.068.224.224 0 0 1 .05.075.225.225 0 0 1 0 .178.24.24 0 0 1-.05.075c-.022.022-.047.039-.075.05s-.058.018-.089.018H29.039c-.061 0-.12-.025-.164-.068s-.068-.102-.068-.164zM38.231 8.425a.228.228 0 0 1 .068-.164.224.224 0 0 1 .075-.05.225.225 0 0 1 .089-.018h1.243c.062 0 .121.024.164.068s.068.103.068.164c0 .062-.024.121-.068.164s-.103.068-.164.068h-1.243c-.061 0-.12-.025-.164-.068s-.068-.102-.068-.164z" style="fill:var(--color8, #e6e6e6)"/>
            <path fill="#2f2e41" d="M14.898 4.441a1.817 1.817 0 0 0-1.227-1.044c-.601-.157-1.482.082-1.934.424-.827.626-1.029 2.778-.461 3.457.113-.005.503-.008.617-.011l.162-.41v.406a72.295 72.295 0 0 1 2.752.006c.083-.481.282-2.365.091-2.828z" style="fill:var(--color10, #2f2e41)"/>
            <path fill="#9e616a" d="M14.746 30.383h.814l.387-3.143h-1.202v3.143zM7.619 29.876l.788.206 1.167-2.944-1.163-.303-.792 3.041z" style="fill:var(--color12, #9e616a)"/>
            <path fill="#ffb6b6" d="m12.106 11.079-.184.48.037.48 3.611 1.252-.179-2.101-.406-.48-2.878.369z" style="fill:var(--color13, #ffb6b6)"/>
            <path fill="#9e616a" d="M13.655 6.759a1.29 1.29 0 1 0-.002-2.582 1.29 1.29 0 0 0 .002 2.582z" style="fill:var(--color12, #9e616a)"/>
            <path fill="#2f2e41" d="M14.541 3.788a1.624 1.624 0 0 0-1.65-.022 1.62 1.62 0 0 0-.813 1.437c.703.18 1.452.255 2.246.043l.181-.444.107.445c.243.171.477.171.703-.001a1.648 1.648 0 0 0-.775-1.457zM14.544 29.981l1.287-.077v.552l1.224.846a.344.344 0 0 1-.196.628h-1.532l-.264-.546-.103.546h-.578l.162-1.949zM7.453 29.418l1.265.25-.139.534.971 1.127a.348.348 0 0 1 .032.408.348.348 0 0 1-.379.151l-1.483-.387-.118-.595-.237.502-.559-.146.648-1.845zM7.718 27.9l2.387-4.909.749-5.975c-.517-.96.443-2.914.443-2.914v-.82l3.716.702a17.861 17.861 0 0 1 1.087 6.482l-.15 7.942h.047a.294.294 0 1 1 0 .588h-1.47a.294.294 0 1 1 0-.588h.038L13.51 18.304l-1.227 4.986-2.964 4.591a.297.297 0 0 1 .27.305c-.003.076-.035.148-.09.2s-.128.082-.204.082h-1.47a.295.295 0 0 1-.288-.238.294.294 0 0 1 .18-.329z" style="fill:var(--color10, #2f2e41)"/>
            <path fill="#3f3d56" d="M10.961 14.605a.236.236 0 0 1 .212-.177c.049-.56.373-4.155.385-4.26v-.004l.094-2.004a.294.294 0 0 1 .276-.282l.495-.032c.007 0 .013-.003.018-.008s.007-.011.007-.018a.41.41 0 0 1 .122-.294.42.42 0 0 1 .294-.122h1.466a.39.39 0 0 1 .387.342c.001.006.004.013.009.017s.011.007.018.006a.698.698 0 0 1 .7.578c.2 1.167.602 3.814.403 5.286-.069.512-.038 1.283-.012 1.712a.316.316 0 0 1-.078.229.235.235 0 0 1-.123.453l-4.503-1.136a.237.237 0 0 1-.17-.286z" style="fill:var(--color7, #3f3d56)"/>
            <path fill="#cacaca" d="M24.605 32H.07c-.019 0-.036-.007-.05-.021s-.021-.031-.021-.05c0-.019.007-.036.021-.05s.031-.021.05-.021h24.535c.019 0 .036.007.049.021s.021.031.021.05-.007.036-.021.05a.07.07 0 0 1-.049.021z" style="fill:var(--color14, #cacaca)"/>
            <path fill="#9e616a" d="M11.169 17.985a.565.565 0 0 0 .165-.457.58.58 0 0 0-.245-.42l.913-4.541-1.009.324-.731 4.392a.577.577 0 0 0 .906.702z" style="fill:var(--color12, #9e616a)"/>
            <path fill="#3f3d56" d="m12.518 8.378-.626-.473s-.552-.039-.65.957-.299 2.938-.299 2.938l-.958 4.439 1.326.291 1.026-4.791.615-1.423-.435-1.94z" style="fill:var(--color7, #3f3d56)"/>
            <path fill="#9e616a" d="M20.647 9.664a.589.589 0 0 0-.485.031.566.566 0 0 0-.287.392l-4.525.974.7.796 4.316-1.082a.581.581 0 0 0 .634-.431.574.574 0 0 0-.353-.68z" style="fill:var(--color12, #9e616a)"/>
            <path fill="#3f3d56" d="M14.639 12.122a1.249 1.249 0 0 1-.317-.503l-.826-2.486a1.046 1.046 0 1 1 2.036-.384l.101 1.956 3.339-.489.868.798-.047.016c-.184.063-4.404 1.494-5.103 1.129a.268.268 0 0 1-.052-.036z" style="fill:var(--color7, #3f3d56)"/>
            <path fill="#f0af2e" d="M20.779 8.08h-.018a.428.428 0 0 1-.343-.196 4.817 4.817 0 0 0-1.014-1.099c-.238-.19-.487-.367-.727-.538-.62-.441-1.204-.857-1.529-1.432-.707-1.253.126-2.997 1.315-3.78C19.797.157 21.552.02 23.25.002a50.454 50.454 0 0 1 9.65.832c1 .185 2.047.411 2.889.96.836.546 1.345 1.405 1.295 2.19-.072 1.145-1.286 2.001-2.39 2.225-1.053.213-2.147.069-3.305-.083-.256-.034-.52-.068-.781-.099-2.841-.329-8.177.684-8.403.727l-.224.043-.869 1.119a.421.421 0 0 1-.332.164z" style="fill:var(--color4, #f0af2e)"/>
            <path fill="#fff" d="M33.429 2.493H21.422a.263.263 0 0 1-.185-.447.261.261 0 0 1 .185-.077h12.007a.263.263 0 0 1 .185.447.261.261 0 0 1-.185.077zM33.429 4.098H21.422a.266.266 0 0 1-.185-.077.26.26 0 0 1-.057-.285.26.26 0 0 1 .242-.162H33.43a.263.263 0 0 1 .185.447.261.261 0 0 1-.185.077zM22.821 5.703h-1.399a.263.263 0 0 1-.185-.447.261.261 0 0 1 .185-.077h1.399a.263.263 0 0 1 .185.447.261.261 0 0 1-.185.077z" style="fill:var(--color2, #fff)"/>
        </symbol>
        <symbol id="icon-PCbodies" viewBox="0 0 50 32">
            <path fill="#2f2e41" d="M43.648 29.546a4.102 4.102 0 1 0-5.8-5.801 4.102 4.102 0 0 0 5.8 5.801z" style="fill:var(--color10, #2f2e41)"/>
            <path fill="#fff" d="M40.725 27.023a1.402 1.402 0 1 0-.606-2.738 1.402 1.402 0 0 0 .606 2.738z" style="fill:var(--color2, #fff)"/>
            <path fill="#3f3d56" d="M39.955 25.748a.467.467 0 1 0-.201-.912.467.467 0 0 0 .201.912z" style="fill:var(--color7, #3f3d56)"/>
            <path fill="#f0af2e" d="M40.586 23.872c-1.677-.003-2.855-.303-2.852-1.822s1.365-2.749 3.042-2.746c1.677.003 3.035 1.238 3.032 2.757s-1.545 1.814-3.222 1.811z" style="fill:var(--color4, #f0af2e)"/>
            <path fill="#e6e6e6" d="M47.176 27.331c-.481 1.669-1.886 2.838-3.352 3.83a30.933 30.933 0 0 1-.618.408l-.029.019-.126.081.023.01s.023.012-.002.002l-.022-.009c-.851-.343-1.718-.712-2.37-1.355-.677-.668-1.072-1.716-.706-2.593a1.703 1.703 0 0 1 .276-.449 1.791 1.791 0 0 1 1.702-.63 1.79 1.79 0 0 1 1.383 1.175c.108-1.002-.719-1.842-1.514-2.462s-1.7-1.294-1.854-2.29c-.086-.555.107-1.092.458-1.524l.033-.039a2.622 2.622 0 0 1 1.684-.904c1.22-.127 2.406.519 3.292 1.368 1.427 1.365 2.29 3.462 1.743 5.36z" style="fill:var(--color8, #e6e6e6)"/>
            <path fill="#fff" d="M44.883 25.148c.234.364.414.761.534 1.177.101.372.146.757.134 1.143a4.96 4.96 0 0 1-.649 2.256 7.13 7.13 0 0 1-1.076 1.438 30.933 30.933 0 0 1-.618.408l-.029.019-.126.081s.046.022.021.012l-.022-.009a3.94 3.94 0 0 0-1.262-3.395 3.979 3.979 0 0 0-1.633-.879c.03-.043.062-.083.095-.123.234.066.462.152.681.258a4.044 4.044 0 0 1 1.827 1.761c.363.697.519 1.484.45 2.267l.104-.096c.647-.603 1.222-1.295 1.61-2.094a4.622 4.622 0 0 0 .483-2.182c-.032-.824-.36-1.587-.836-2.252a9.675 9.675 0 0 0-1.83-1.886 10.989 10.989 0 0 0-2.276-1.405.08.08 0 0 1-.04-.102.064.064 0 0 1 .033-.039c.008-.003.017-.005.026-.005s.017.003.025.007a11.093 11.093 0 0 1 2.591 1.654c.675.575 1.31 1.232 1.784 1.985z" style="fill:var(--color2, #fff)"/>
            <path fill="#2f2e41" d="M7.02 31.957c.574 0 1.038-.174 1.038-.389s-.465-.389-1.038-.389c-.574 0-1.038.174-1.038.389s.465.389 1.038.389zM9.513 31.905c.573 0 1.038-.174 1.038-.389s-.465-.389-1.038-.389-1.038.174-1.038.389.465.389 1.038.389zM12.821 25.36c.981-.566 1.633-1.274 1.455-1.582s-1.117-.099-2.098.466c-.981.566-1.633 1.274-1.455 1.582s1.117.099 2.098-.466z" style="fill:var(--color10, #2f2e41)"/>
            <path fill="#2f2e41" d="M11.9 26.747a4.102 4.102 0 1 0-8.099-1.314 4.102 4.102 0 0 0 8.099 1.314z" style="fill:var(--color10, #2f2e41)"/>
            <path fill="#2f2e41" d="M7.228 29.309H5.982v2.233h1.246v-2.233zM9.72 29.309H8.474v2.233H9.72v-2.233z" style="fill:var(--color10, #2f2e41)"/>
            <path fill="#fff" d="M7.955 26.454a1.402 1.402 0 1 0 0-2.805 1.402 1.402 0 0 0 0 2.805z" style="fill:var(--color2, #fff)"/>
            <path fill="#3f3d56" d="M7.955 25.519a.467.467 0 1 0 0-.934.467.467 0 0 0 0 .934z" style="fill:var(--color7, #3f3d56)"/>
            <path fill="#e6e6e6" d="M3.872 22.276c-.331-1.483.728-2.982 2.365-3.348s3.233.54 3.564 2.024c.331 1.483-.754 2.03-2.391 2.396s-3.206.411-3.538-1.072z" style="fill:var(--color8, #e6e6e6)"/>
            <path fill="#2f2e41" d="M5.084 25.066c.152-.321-.554-.975-1.577-1.461s-1.976-.618-2.129-.297c-.152.321.554.975 1.577 1.461s1.976.618 2.129.297z" style="fill:var(--color10, #2f2e41)"/>
            <path fill="#fff" d="M5.836 27.57c0 .401 1.034 1.194 2.181 1.194s2.222-1.13 2.222-1.532c0-.401-1.075.078-2.222.078s-2.181-.142-2.181.26z" style="fill:var(--color2, #fff)"/>
            <path fill="#2f2e41" d="M22.153 31.957c.573 0 1.038-.174 1.038-.389s-.465-.389-1.038-.389c-.574 0-1.038.174-1.038.389s.465.389 1.038.389zM19.661 31.905c.574 0 1.038-.174 1.038-.389s-.465-.389-1.038-.389-1.038.174-1.038.389.465.389 1.038.389zM18.451 25.827c.178-.308-.474-1.016-1.455-1.582s-1.921-.775-2.098-.466c-.178.308.474 1.016 1.455 1.582s1.921.774 2.098.466z" style="fill:var(--color10, #2f2e41)"/>
            <path fill="#2f2e41" d="M21.322 30.192a4.102 4.102 0 1 0 0-8.204 4.102 4.102 0 0 0 0 8.204z" style="fill:var(--color10, #2f2e41)"/>
            <path fill="#2f2e41" d="M23.192 29.309h-1.246v2.233h1.246v-2.233zM20.699 29.309h-1.246v2.233h1.246v-2.233z" style="fill:var(--color10, #2f2e41)"/>
            <path fill="#fff" d="M20.362 26.454a1.402 1.402 0 1 0 0-2.805 1.402 1.402 0 0 0 0 2.805z" style="fill:var(--color2, #fff)"/>
            <path fill="#3f3d56" d="M20.024 25.19c.183-.183.184-.479.003-.66s-.477-.181-.66.002c-.183.183-.184.479-.003.66s.477.181.66-.002z" style="fill:var(--color7, #3f3d56)"/>
            <path fill="#f0af2e" d="M21.764 23.348c-1.637-.366-2.722-.913-2.391-2.396s1.927-2.389 3.564-2.024c1.637.366 2.696 1.864 2.365 3.348s-1.9 1.438-3.538 1.072z" style="fill:var(--color4, #f0af2e)"/>
            <path fill="#2f2e41" d="M25.612 29.217c.344-.091.387-1.053.096-2.147s-.805-1.908-1.149-1.817c-.344.091-.387 1.053-.096 2.147s.805 1.908 1.149 1.817z" style="fill:var(--color10, #2f2e41)"/>
            <path fill="#fff" d="M20.393 27.31c-.753 0-1.459-.479-1.459-.078s.706 1.532 1.459 1.532c.753 0 1.432-.793 1.432-1.194s-.679-.26-1.432-.26z" style="fill:var(--color2, #fff)"/>
            <path fill="#f0af2e" d="M15.093 19.289h-.364a1.23 1.23 0 0 1-1.231-1.231v-.306c0-.757.144-1.392.427-1.885a9.906 9.906 0 0 1 1.194-1.605c.3-.301.571-.629.812-.979a1.64 1.64 0 0 0 .256-.911c0-.76-.495-1.129-1.513-1.129a6.158 6.158 0 0 0-1.668.25 1.398 1.398 0 0 1-1.232-.23 1.397 1.397 0 0 1-.558-1.121v-.619a1.383 1.383 0 0 1 .812-1.263 7.452 7.452 0 0 1 3.03-.596c1.09 0 2.074.183 2.924.544.852.362 1.525.872 2.001 1.517.474.64.726 1.417.718 2.214 0 .855-.234 1.6-.694 2.214-.455.608-1.108 1.273-1.941 1.977-.438.365-.854.756-1.244 1.172a2.16 2.16 0 0 0-.517.963 1.224 1.224 0 0 1-1.213 1.022zM14.89 25.077h-.048a2.284 2.284 0 0 1-2.28-2.281c0-.605.24-1.185.668-1.612s1.007-.668 1.612-.669h.048a2.292 2.292 0 0 1 1.613.667 2.285 2.285 0 0 1 .495 2.486 2.285 2.285 0 0 1-2.108 1.407z" style="fill:var(--color4, #f0af2e)"/>
            <path fill="#ccc" d="M29.714 32H.095c-.025 0-.049-.01-.067-.028a.095.095 0 0 1 .067-.162h29.619c.025 0 .05.01.067.028s.028.042.028.067-.01.05-.028.067a.095.095 0 0 1-.067.028zM49.714 32h-15.81c-.025 0-.05-.01-.067-.028s-.028-.042-.028-.067.01-.05.028-.067a.095.095 0 0 1 .067-.028h15.81c.025 0 .05.01.067.028s.028.042.028.067-.01.05-.028.067a.095.095 0 0 1-.067.028z" style="fill:var(--color11, #ccc)"/>
            <path fill="#2f2e41" d="M39.902 29.218c1.132-.022 2.045-.328 2.038-.684s-.931-.626-2.063-.604c-1.132.022-2.045.328-2.038.684s.931.626 2.063.604z" style="fill:var(--color10, #2f2e41)"/>
            <path fill="#f2f2f2" d="M38.872 14.19h-2.476a.479.479 0 0 1-.476-.477v-2.476a.476.476 0 0 1 .476-.477h2.476a.476.476 0 0 1 .477.477v2.476a.476.476 0 0 1-.477.477zm-2.476-3.238a.285.285 0 0 0-.286.286v2.476a.285.285 0 0 0 .286.286h2.476a.285.285 0 0 0 .286-.286v-2.476a.285.285 0 0 0-.286-.286h-2.476z" style="fill:var(--color6, #f2f2f2)"/>
            <path fill="#f2f2f2" d="M40.015 12.571h-2.476a.479.479 0 0 1-.476-.477V9.618a.476.476 0 0 1 .476-.477h2.476a.476.476 0 0 1 .477.477v2.476a.476.476 0 0 1-.477.477zm-2.476-3.238a.285.285 0 0 0-.286.286v2.476a.285.285 0 0 0 .286.286h2.476a.285.285 0 0 0 .286-.286V9.619a.285.285 0 0 0-.286-.286h-2.476zM20.492 4.667h-2.476a.479.479 0 0 1-.476-.477V1.714a.476.476 0 0 1 .476-.477h2.476a.476.476 0 0 1 .477.477V4.19a.476.476 0 0 1-.477.477zm-2.477-3.238a.285.285 0 0 0-.286.286v2.476a.285.285 0 0 0 .286.286h2.476a.285.285 0 0 0 .286-.286V1.715a.285.285 0 0 0-.286-.286h-2.476z" style="fill:var(--color6, #f2f2f2)"/>
            <path fill="#f2f2f2" d="M18.968 3.429h-2.476a.479.479 0 0 1-.476-.477V.476a.476.476 0 0 1 .476-.477h2.476a.476.476 0 0 1 .477.477v2.476a.476.476 0 0 1-.477.477zM16.492.19a.285.285 0 0 0-.286.286v2.476a.285.285 0 0 0 .286.286h2.476a.285.285 0 0 0 .286-.286V.476a.285.285 0 0 0-.286-.286h-2.476zM30.592 18.061a.616.616 0 1 0 0-1.233.616.616 0 0 0 0 1.233zM5.83 15.87a.616.616 0 1 0 0-1.233.616.616 0 0 0 0 1.233zM47.354 21.204a.616.616 0 1 0 0-1.233.616.616 0 0 0 0 1.233z" style="fill:var(--color6, #f2f2f2)"/>
        </symbol>
    </defs>
</svg>