<svg aria-hidden="true" style="position: absolute; width: 0; height: 0; overflow: hidden;" version="1.1" xmlns="http://www.w3.org/2000/svg" xmlns:xlink="http://www.w3.org/1999/xlink">
<defs>
<symbol id="icon-PC-style-girl121" viewBox="0 0 44 32">
<path fill="#f2f2f2" style="fill: var(--color1, #f2f2f2)" d="M19.37 28.227l0.067-1.515c0.66-0.36 1.444-0.573 2.278-0.577h0.001c-1.095 0.896-0.958 2.623-1.7 3.828-0.238 0.376-0.547 0.686-0.911 0.919l-0.012 0.007c-0.352 0.225-0.77 0.38-1.219 0.433l-0.014 0.001-0.916 0.562c-0.049-0.262-0.077-0.563-0.077-0.871 0-1.19 0.421-2.281 1.122-3.133l-0.007 0.009c0.257-0.306 0.544-0.574 0.861-0.804l0.014-0.010c0.219 0.579 0.512 1.152 0.512 1.152z"></path>
<path fill="#e6e6e6" style="fill: var(--color2, #e6e6e6)" d="M25.193 7.156c0.026 0.363 0.133 0.697 0.302 0.989l-0.006-0.011c0.36 0.634 0.979 1.092 1.644 1.365 0.832 0.341 1.759 0.351 2.642 0.275 0.82-0.070 1.631-0.234 2.454-0.268 0.163-0.006 0.354-0.009 0.546-0.009 0.479 0 0.954 0.020 1.423 0.058l-0.062-0.004c1.231 0.087 2.458 0.25 3.676 0.447 0.575 0.088 0.911 0.147 1.245 0.21l-0.257-0.041c0.031 0.003 0.062 0.008 0.092 0.017 0.006 0.002 0.016 0.001 0.021 0.004 0.010 0.006-0.040-0.016-0.010 0.009 0.042 0.044 0.080 0.093 0.112 0.145l0.45 0.58c0.129 0.166 0.249 0.368 0.415 0.499 0.112 0.087 0.252 0.144 0.405 0.155l0.002 0c0.016 0.001 0.034 0.002 0.053 0.002 0.137 0 0.266-0.037 0.376-0.101l-0.004 0.002c0.134-0.086 0.24-0.206 0.308-0.347l0.002-0.005c0.111-0.202 0.233-0.376 0.371-0.536l-0.003 0.004c0.535-0.625 1.279-1.010 1.901-1.536 0.3-0.244 0.552-0.532 0.752-0.856l0.008-0.015c0.164-0.281 0.276-0.613 0.313-0.967l0.001-0.011c0.074-0.699-0.14-1.412-0.5-2.006-0.396-0.638-0.947-1.146-1.603-1.479l-0.023-0.010c-0.753-0.384-1.586-0.571-2.422-0.664-0.887-0.099-1.784-0.099-2.675-0.089-1 0.011-1.998 0.055-2.995 0.132-1.195 0.093-2.219 0.21-3.232 0.36l0.25-0.030c-0.95 0.137-1.911 0.279-2.841 0.521-0.821 0.214-1.641 0.548-2.254 1.153-0.545 0.538-0.925 1.275-0.881 2.056z"></path>
<path fill="#fff" style="fill: var(--color3, #fff)" d="M29.533 4.346c-0.887 0.164-1.815 0.364-2.559 0.85-0.736 0.48-1.183 1.236-1.14 1.924 0.064 1.005 1.132 1.757 2.104 1.955 0.932 0.189 1.902 0.061 2.93-0.074 0.227-0.030 0.462-0.061 0.695-0.088 2.529-0.293 7.278 0.609 7.479 0.647l0.209 0.040 1.105 1.424c0.252-0.561 0.689-1.060 1.154-1.431 0.213-0.17 0.435-0.328 0.649-0.481 0.548-0.39 1.065-0.758 1.35-1.264 0.621-1.101-0.113-2.637-1.161-3.327-1.181-0.777-2.736-0.899-4.242-0.915-0.157-0.002-0.314-0.003-0.47-0.003-2.718 0.001-5.43 0.249-8.103 0.742z"></path>
<path fill="#e6e6e6" style="fill: var(--color2, #e6e6e6)" d="M28.825 5.563c0-0.031 0.006-0.061 0.018-0.089 0.012-0.029 0.029-0.054 0.050-0.075v0c0.021-0.021 0.046-0.038 0.074-0.050l0.002-0.001c0.026-0.011 0.057-0.018 0.089-0.018h10.675c0.128 0 0.232 0.104 0.232 0.233v0c0 0 0 0 0 0 0 0.128-0.104 0.232-0.232 0.232h-10.675c-0.064-0-0.122-0.026-0.164-0.068v0c-0.042-0.042-0.068-0.1-0.068-0.164 0-0 0-0 0-0v0zM28.825 6.99c0-0.031 0.006-0.061 0.018-0.089 0.012-0.029 0.029-0.054 0.050-0.075v0c0.021-0.021 0.046-0.038 0.074-0.050l0.002-0.001c0.026-0.011 0.057-0.018 0.089-0.018h10.676c0.031 0 0.061 0.006 0.089 0.018s0.054 0.029 0.075 0.051c0.021 0.021 0.038 0.046 0.050 0.074l0.001 0.002c0.011 0.026 0.018 0.057 0.018 0.089s-0.007 0.063-0.018 0.091l0.001-0.002c-0.012 0.029-0.029 0.054-0.051 0.076v0c-0.042 0.042-0.1 0.068-0.164 0.068-0 0-0 0-0 0h-10.675c-0.128-0-0.232-0.104-0.232-0.232v0zM38.257 8.417c0-0 0-0.001 0-0.001 0-0.064 0.026-0.122 0.068-0.164v0c0.021-0.021 0.046-0.038 0.074-0.050l0.002-0.001c0.026-0.011 0.056-0.018 0.088-0.018 0 0 0 0 0.001 0h1.244c0.062 0 0.121 0.024 0.164 0.068 0.042 0.042 0.068 0.1 0.068 0.164 0 0.128-0.104 0.232-0.233 0.232 0 0 0 0-0 0h-1.244c-0.064-0-0.122-0.026-0.164-0.068v0c-0.042-0.042-0.068-0.1-0.068-0.164 0-0 0-0 0-0v0z"></path>
<path fill="#2f2e41" style="fill: var(--color4, #2f2e41)" d="M14.908 4.429c-0.227-0.517-0.672-0.901-1.215-1.042l-0.013-0.003c-0.602-0.157-1.483 0.082-1.935 0.425-0.827 0.627-1.029 2.78-0.461 3.461 0.113-0.005 0.503-0.008 0.618-0.011l0.162-0.41v0.406c0.893-0.021 1.823-0.008 2.754 0.006 0.083-0.482 0.282-2.368 0.091-2.831z"></path>
<path fill="#9e616a" style="fill: var(--color5, #9e616a)" d="M14.756 30.397h0.815l0.388-3.146-1.203 0zM7.624 29.89l0.788 0.206 1.168-2.947-1.164-0.304z"></path>
<path fill="#ffb6b6" style="fill: var(--color6, #ffb6b6)" d="M12.114 11.074l-0.185 0.481 0.037 0.481 3.613 1.253-0.179-2.103-0.406-0.481z"></path>
<path fill="#9e616a" style="fill: var(--color5, #9e616a)" d="M13.664 6.75c0.713 0 1.29-0.578 1.29-1.292s-0.578-1.292-1.29-1.292-1.29 0.578-1.29 1.292c0 0.714 0.578 1.292 1.29 1.292z"></path>
<path fill="#2f2e41" style="fill: var(--color4, #2f2e41)" d="M14.55 3.776c-0.24-0.149-0.532-0.237-0.844-0.237-0.297 0-0.575 0.080-0.815 0.219l0.008-0.004c-0.253 0.147-0.458 0.353-0.599 0.6l-0.004 0.008c-0.132 0.23-0.211 0.506-0.211 0.8 0 0.011 0 0.021 0 0.032l-0-0.002c0.704 0.18 1.453 0.255 2.248 0.043l0.182-0.445 0.107 0.445c0.243 0.171 0.478 0.171 0.704-0.001 0.001-0.016 0.001-0.035 0.001-0.054 0-0.285-0.072-0.553-0.198-0.787l0.004 0.009c-0.139-0.259-0.337-0.47-0.576-0.622l-0.007-0.004zM14.554 29.995l1.288-0.077v0.552l1.224 0.847c0.090 0.063 0.149 0.167 0.149 0.284 0 0.114-0.055 0.214-0.14 0.277l-0.001 0.001c-0.056 0.042-0.127 0.067-0.204 0.067-0 0-0 0-0 0h-1.533l-0.264-0.546-0.103 0.546h-0.578zM7.458 29.431l1.266 0.251-0.139 0.535 0.972 1.129c0.046 0.053 0.077 0.122 0.082 0.198l0 0.001c0.001 0.008 0.001 0.017 0.001 0.027 0 0.19-0.154 0.345-0.345 0.345-0.031 0-0.061-0.004-0.089-0.012l0.002 0.001-1.484-0.387-0.118-0.595-0.238 0.503-0.559-0.146zM7.724 27.912l2.388-4.914 0.75-5.981c-0.517-0.961 0.443-2.917 0.443-2.917v-0.821l3.719 0.702c0.691 1.829 1.091 3.944 1.091 6.151 0 0.119-0.001 0.237-0.003 0.355l0-0.018-0.15 7.95h0.047c0.162 0 0.294 0.132 0.294 0.294 0 0 0 0 0 0v0c0 0 0 0 0 0 0 0.162-0.132 0.294-0.294 0.294h-1.471c-0.162-0-0.294-0.132-0.294-0.294 0-0 0-0 0-0v0c0-0 0-0 0-0 0-0.162 0.132-0.294 0.294-0.294h0.038l-1.056-10.114-1.227 4.991-2.966 4.595c0.152 0.012 0.271 0.139 0.271 0.293 0 0.083-0.035 0.158-0.090 0.212l-0 0c-0.053 0.050-0.124 0.082-0.203 0.082-0 0-0.001 0-0.001 0h-1.47c-0 0-0 0-0.001 0-0.071 0-0.136-0.025-0.187-0.068l0 0c-0.051-0.043-0.088-0.102-0.101-0.17l-0-0.002c-0.003-0.017-0.005-0.036-0.005-0.055 0-0.052 0.013-0.101 0.037-0.143l-0.001 0.002c0.033-0.060 0.085-0.106 0.147-0.131l0.002-0.001z"></path>
<path fill="#3f3d56" style="fill: var(--color7, #3f3d56)" d="M10.969 14.604c0.013-0.050 0.040-0.091 0.077-0.122l0-0c0.037-0.031 0.083-0.050 0.134-0.054l0.001-0c0.049-0.561 0.373-4.159 0.385-4.265l0.001-0.005 0.094-2.005c0.004-0.076 0.035-0.144 0.085-0.194l-0 0c0.049-0.050 0.117-0.083 0.191-0.088l0.001-0 0.495-0.032c0.007-0 0.013-0.003 0.018-0.008v0c0.005-0.005 0.007-0.011 0.007-0.018v0c0-0.115 0.047-0.219 0.122-0.295v0c0.038-0.038 0.083-0.068 0.132-0.089l0.003-0.001c0.047-0.020 0.102-0.032 0.159-0.032 0 0 0 0 0 0h1.467c0.095 0 0.187 0.035 0.258 0.098 0.069 0.061 0.116 0.146 0.129 0.242l0 0.002c0.001 0.013 0.012 0.023 0.026 0.023 0 0 0 0 0.001 0h0c0.004-0 0.009-0 0.014-0 0.169 0 0.324 0.060 0.444 0.16l-0.001-0.001c0.125 0.104 0.213 0.249 0.243 0.415l0.001 0.004c0.2 1.168 0.602 3.818 0.404 5.292-0.069 0.513-0.038 1.284-0.012 1.714 0 0.006 0.001 0.013 0.001 0.020 0 0.080-0.030 0.154-0.079 0.209l0-0c0.098 0.030 0.169 0.119 0.169 0.226 0 0.13-0.105 0.235-0.235 0.235-0.020 0-0.040-0.003-0.059-0.007l0.002 0-4.506-1.137c-0.062-0.016-0.113-0.055-0.144-0.107l-0.001-0.001c-0.021-0.034-0.033-0.076-0.033-0.121 0-0.020 0.003-0.040 0.007-0.059l-0 0.002z"></path>
<path fill="#cacaca" style="fill: var(--color8, #cacaca)" d="M24.621 32.016h-24.551c-0.019 0-0.036-0.007-0.050-0.020s-0.020-0.031-0.020-0.050 0.007-0.036 0.020-0.050c0.013-0.013 0.031-0.020 0.050-0.020h24.551c0.019 0 0.036 0.007 0.050 0.020s0.020 0.031 0.020 0.050-0.007 0.036-0.020 0.050c-0.013 0.013-0.031 0.020-0.050 0.020z"></path>
<path fill="#9e616a" style="fill: var(--color5, #9e616a)" d="M11.176 17.987c0.103-0.104 0.167-0.247 0.167-0.405 0-0.018-0.001-0.037-0.003-0.055l0 0.002c-0.008-0.088-0.035-0.169-0.077-0.24l0.001 0.003c-0.043-0.073-0.1-0.134-0.167-0.181l-0.002-0.001 0.914-4.545-1.009 0.325-0.732 4.396c-0.052 0.085-0.082 0.188-0.082 0.297 0 0.038 0.004 0.075 0.011 0.11l-0.001-0.004c0.028 0.143 0.105 0.265 0.213 0.349l0.001 0.001c0.097 0.075 0.22 0.121 0.353 0.121 0.014 0 0.027-0 0.041-0.001l-0.002 0c0.147-0.010 0.277-0.074 0.373-0.172l0-0z"></path>
<path fill="#3f3d56" style="fill: var(--color7, #3f3d56)" d="M12.526 8.371l-0.626-0.473s-0.553-0.039-0.65 0.958c-0.098 0.998-0.299 2.941-0.299 2.941l-0.958 4.444 1.327 0.292 1.027-4.795 0.616-1.424z"></path>
<path fill="#9e616a" style="fill: var(--color5, #9e616a)" d="M20.661 9.657c-0.062-0.025-0.134-0.039-0.209-0.039-0.013 0-0.026 0-0.039 0.001l0.002-0c-0.088 0.006-0.17 0.031-0.242 0.071l0.003-0.002c-0.075 0.042-0.137 0.097-0.186 0.163l-0.001 0.002c-0.048 0.064-0.082 0.141-0.099 0.224l-0.001 0.004-4.528 0.975 0.7 0.797 4.319-1.083c0.022 0.003 0.048 0.005 0.075 0.005 0.269 0 0.494-0.184 0.559-0.432l0.001-0.004c0.011-0.043 0.018-0.091 0.018-0.142 0-0.245-0.152-0.454-0.367-0.538l-0.004-0.001z"></path>
<path fill="#3f3d56" style="fill: var(--color7, #3f3d56)" d="M14.649 12.119c-0.141-0.137-0.25-0.306-0.314-0.495l-0.003-0.009-0.827-2.489c-0.034-0.099-0.053-0.213-0.053-0.331 0-0.082 0.009-0.163 0.027-0.24l-0.001 0.007c0.045-0.194 0.14-0.362 0.269-0.496l-0 0c0.191-0.197 0.457-0.319 0.752-0.319 0.106 0 0.209 0.016 0.305 0.045l-0.007-0.002c0.213 0.065 0.392 0.19 0.522 0.354l0.002 0.002c0.129 0.162 0.211 0.367 0.223 0.591l0 0.003 0.101 1.958 3.341-0.49 0.869 0.799-0.047 0.016c-0.184 0.063-4.407 1.496-5.106 1.13-0.020-0.010-0.037-0.022-0.052-0.036l0 0z"></path>
<path fill="#f0af2e" style="fill: var(--color9, #f0af2e)" d="M20.793 8.072c-0.006 0-0.012 0-0.018-0-0.072-0.003-0.139-0.023-0.197-0.057l0.002 0.001c-0.060-0.035-0.11-0.082-0.147-0.138l-0.001-0.002c-0.286-0.424-0.622-0.787-1.005-1.093l-0.010-0.008c-0.238-0.191-0.487-0.368-0.728-0.539-0.621-0.442-1.205-0.858-1.53-1.433-0.707-1.254 0.126-3 1.316-3.783 1.335-0.878 3.091-1.016 4.79-1.034 0.177-0.002 0.353-0.003 0.53-0.003 3.061 0.001 6.115 0.281 9.126 0.835 1.001 0.185 2.049 0.411 2.891 0.961 0.837 0.546 1.346 1.407 1.296 2.192-0.072 1.146-1.286 2.003-2.392 2.227-1.054 0.213-2.148 0.069-3.307-0.084-0.256-0.034-0.52-0.068-0.782-0.099-2.843-0.329-8.183 0.685-8.409 0.728l-0.224 0.043-0.87 1.12c-0.077 0.1-0.197 0.163-0.331 0.163-0 0-0.001 0-0.001 0h0z"></path>
<path fill="#fff" style="fill: var(--color3, #fff)" d="M33.452 2.48h-12.015c-0.144-0-0.261-0.117-0.261-0.262 0-0 0-0 0-0v0c0-0.069 0.027-0.136 0.076-0.185 0.047-0.047 0.113-0.076 0.185-0.077h12.015c0.072 0 0.137 0.029 0.185 0.077v0c0.047 0.047 0.077 0.113 0.077 0.185s-0.029 0.138-0.077 0.185v0c-0.047 0.047-0.112 0.077-0.185 0.077h-0zM33.452 4.086h-12.015c-0 0-0.001 0-0.001 0-0.036 0-0.070-0.007-0.101-0.020l0.002 0.001c-0.033-0.014-0.061-0.033-0.085-0.057v0c-0.047-0.047-0.077-0.113-0.077-0.185 0 0 0-0 0-0v0c0-0 0-0 0-0 0-0.144 0.117-0.261 0.261-0.262h12.016c0.072 0 0.137 0.030 0.185 0.077v0c0.047 0.047 0.076 0.113 0.076 0.185 0 0.144-0.117 0.261-0.261 0.262h-0zM22.837 5.692h-1.4c-0.072-0-0.137-0.029-0.185-0.077v0c-0.047-0.047-0.077-0.113-0.077-0.185 0-0 0-0 0-0v0c0-0.069 0.027-0.136 0.077-0.185 0.047-0.047 0.113-0.077 0.185-0.077h1.4c0 0 0 0 0 0 0.072 0 0.138 0.029 0.185 0.077v0c0.047 0.047 0.077 0.113 0.077 0.185s-0.029 0.138-0.077 0.185v0c-0.047 0.047-0.113 0.077-0.185 0.077-0 0-0 0-0 0v0z"></path>
</symbol>
<symbol id="icon-PC-style-women121" viewBox="0 0 47 32">
<path fill="#f2f2f2" style="fill: var(--color1, #f2f2f2)" d="M46.082 29.113c-0.321 1.113-1.258 1.891-2.236 2.553-0.050 0.038-0.184 0.127-0.318 0.215l-0.091 0.056c-0.001 0-0.002 0.001-0.003 0.002-0.006 0.004-0.013 0.008-0.019 0.013-0.028 0.018-0.056 0.036-0.084 0.054l0.015 0.007s0.015 0.008-0.001 0.001c-0.005-0.002-0.010-0.004-0.015-0.006-0.568-0.229-1.146-0.475-1.581-0.903-0.452-0.445-0.716-1.144-0.471-1.728 0.035-0.083 0.076-0.154 0.123-0.22l-0.002 0.003c0.020-0.028 0.041-0.055 0.063-0.082 0.133-0.162 0.306-0.287 0.503-0.361l0.008-0.003c0.124-0.047 0.267-0.074 0.416-0.074 0.074 0 0.146 0.007 0.216 0.019l-0.007-0.001c0.21 0.037 0.406 0.129 0.568 0.267 0.159 0.136 0.281 0.31 0.352 0.509l0.003 0.008c0.072-0.668-0.48-1.228-1.010-1.641s-1.134-0.862-1.237-1.527c-0.057-0.37 0.071-0.728 0.306-1.015 0.007-0.009 0.014-0.018 0.022-0.026 0.279-0.326 0.671-0.547 1.115-0.602l0.008-0.001c0.814-0.085 1.605 0.346 2.196 0.912 0.952 0.91 1.528 2.307 1.163 3.572z"></path>
<path fill="#fff" style="fill: var(--color3, #fff)" d="M44.551 27.658c0.147 0.226 0.269 0.486 0.351 0.764l0.005 0.021c0.057 0.203 0.091 0.436 0.091 0.677 0 0.030-0.001 0.059-0.002 0.089l0-0.004c-0.024 0.556-0.181 1.071-0.442 1.519l0.008-0.016c-0.209 0.364-0.447 0.679-0.719 0.96l0.001-0.001c-0.050 0.038-0.184 0.127-0.318 0.215l-0.091 0.056c-0.001 0-0.002 0.001-0.003 0.002-0.006 0.004-0.013 0.008-0.019 0.013-0.028 0.018-0.056 0.036-0.084 0.054 0 0 0.030 0.015 0.014 0.008-0.005-0.002-0.010-0.004-0.015-0.006 0.012-0.095 0.019-0.206 0.019-0.318 0-0.77-0.331-1.463-0.859-1.943l-0.002-0.002c-0.301-0.269-0.667-0.472-1.071-0.581l-0.019-0.004c0.022-0.031 0.043-0.058 0.065-0.084l-0.001 0.002c0.176 0.050 0.327 0.108 0.47 0.179l-0.016-0.007c0.525 0.256 0.945 0.661 1.212 1.159l0.007 0.014c0.196 0.369 0.311 0.806 0.311 1.27 0 0.085-0.004 0.169-0.011 0.252l0.001-0.011c0.023-0.021 0.047-0.043 0.069-0.064 0.432-0.402 0.815-0.863 1.075-1.396 0.204-0.4 0.323-0.872 0.323-1.371 0-0.029-0-0.058-0.001-0.087l0 0.004c-0.021-0.549-0.24-1.058-0.557-1.501-0.354-0.478-0.756-0.892-1.207-1.246l-0.014-0.010c-0.44-0.355-0.939-0.667-1.473-0.917l-0.045-0.019c-0.018-0.009-0.030-0.027-0.030-0.048 0-0.007 0.001-0.014 0.004-0.020l-0 0c0.004-0.011 0.011-0.020 0.022-0.026l0-0c0.005-0.002 0.010-0.003 0.015-0.003 0.007 0 0.013 0.002 0.019 0.005l-0-0c0.067 0.031 0.133 0.062 0.199 0.095 0.582 0.291 1.085 0.626 1.539 1.016l-0.010-0.008c0.45 0.383 0.874 0.821 1.19 1.323z"></path>
<path fill="#3f3d56" style="fill: var(--color7, #3f3d56)" d="M39.124-0.016h-38.57c-0.153 0-0.291 0.062-0.392 0.162v0c-0.1 0.1-0.162 0.239-0.162 0.391v26.108c0 0.153 0.062 0.291 0.162 0.391v0c0.1 0.1 0.239 0.162 0.392 0.162h38.57c0.080 0 0.159-0.017 0.232-0.051 0.075-0.035 0.138-0.083 0.189-0.142l0.001-0.001c0.004-0.005 0.008-0.010 0.012-0.015 0.032-0.038 0.058-0.083 0.078-0.13l0.001-0.003c0.028-0.067 0.042-0.138 0.042-0.21v-26.108c0-0.147-0.059-0.288-0.163-0.392-0.1-0.1-0.239-0.162-0.392-0.162v0zM39.521 26.645c0 0 0 0 0 0 0 0.081-0.024 0.156-0.066 0.219l0.001-0.001c-0.038 0.056-0.089 0.102-0.148 0.133l-0.002 0.001c-0.052 0.028-0.115 0.044-0.181 0.044-0 0-0 0-0.001 0h-38.57c-0.109-0-0.208-0.044-0.28-0.116v0c-0.072-0.072-0.116-0.17-0.116-0.28v-26.108c0-0.218 0.177-0.395 0.396-0.396h38.57c0.105 0 0.206 0.042 0.28 0.116 0.072 0.072 0.116 0.17 0.116 0.28v0z"></path>
<path fill="#3f3d56" style="fill: var(--color7, #3f3d56)" d="M39.6 2.202h-39.521v0.158h39.521zM1.425 1.645c0.262 0 0.475-0.213 0.475-0.475s-0.213-0.475-0.475-0.475c-0.263 0-0.475 0.212-0.475 0.475s0.213 0.475 0.475 0.475zM2.791 1.645c0.263 0 0.475-0.213 0.475-0.475s-0.213-0.475-0.475-0.475c-0.262 0-0.475 0.212-0.475 0.475s0.213 0.475 0.475 0.475zM4.158 1.645c0.262 0 0.475-0.213 0.475-0.475s-0.213-0.475-0.475-0.475c-0.263 0-0.475 0.212-0.475 0.475s0.213 0.475 0.475 0.475z"></path>
<path fill="#f0af2e" style="fill: var(--color9, #f0af2e)" d="M25.596 11.115c-0 0-0 0-0 0-0.531 0-0.986-0.322-1.181-0.782l-0.003-0.008c-0.062-0.145-0.098-0.313-0.098-0.49 0-0.354 0.143-0.674 0.375-0.905v0c0.232-0.232 0.553-0.375 0.907-0.375 0.177 0 0.346 0.036 0.499 0.101l-0.008-0.003c0.238 0.1 0.434 0.263 0.572 0.467l0.003 0.005c0.141 0.21 0.216 0.458 0.216 0.711-0 0.354-0.144 0.674-0.376 0.905v0c-0.232 0.232-0.552 0.375-0.906 0.376h-0zM25.596 8.675c-0.23 0-0.454 0.068-0.645 0.195-0.313 0.211-0.516 0.564-0.516 0.964 0 0.080 0.008 0.158 0.023 0.233l-0.001-0.007c0.094 0.46 0.451 0.817 0.904 0.909l0.007 0.001c0.068 0.014 0.146 0.022 0.227 0.022 0.16 0 0.313-0.032 0.452-0.091l-0.008 0.003c0.216-0.091 0.393-0.238 0.518-0.423l0.003-0.004c0.122-0.181 0.196-0.404 0.196-0.644 0 0 0 0 0 0v0c-0-0.32-0.13-0.61-0.34-0.819l-0-0c-0.21-0.21-0.5-0.34-0.82-0.34h-0z"></path>
<path fill="#f0af2e" style="fill: var(--color9, #f0af2e)" d="M25.475 10.3c-0.029-0-0.055-0.010-0.077-0.026l0 0-0.001-0.001-0.287-0.219c-0.026-0.020-0.044-0.050-0.049-0.084l-0-0.001c-0.001-0.005-0.001-0.011-0.001-0.016 0-0.065 0.048-0.118 0.11-0.127l0.001-0c0.005-0.001 0.011-0.001 0.017-0.001 0.029 0 0.056 0.010 0.078 0.027l-0-0 0.186 0.142 0.439-0.572c0.010-0.013 0.023-0.024 0.037-0.033s0.029-0.014 0.046-0.016l0.001-0c0.005-0.001 0.011-0.001 0.017-0.001 0.012 0 0.023 0.002 0.034 0.004l-0.001-0c0.016 0.004 0.031 0.012 0.045 0.022l-0.003 0.004 0.003-0.004c0.027 0.021 0.044 0.051 0.049 0.084 0.001 0.005 0.001 0.011 0.001 0.017 0 0.029-0.010 0.056-0.026 0.077l0-0-0.517 0.673c-0.024 0.030-0.060 0.050-0.101 0.050-0 0-0 0-0 0v0z"></path>
<path fill="#e6e6e6" style="fill: var(--color2, #e6e6e6)" d="M29.264 11.115c-0 0-0 0-0 0-0.531 0-0.986-0.322-1.181-0.782l-0.003-0.008c-0.062-0.145-0.098-0.313-0.098-0.49 0-0.354 0.143-0.674 0.375-0.905v0c0.232-0.232 0.553-0.375 0.907-0.375 0.177 0 0.346 0.036 0.499 0.101l-0.008-0.003c0.238 0.1 0.434 0.263 0.572 0.467l0.003 0.005c0.141 0.21 0.216 0.458 0.216 0.711-0 0.354-0.144 0.674-0.376 0.905l-0 0c-0.232 0.232-0.552 0.375-0.906 0.376h-0zM29.264 8.675c-0.23 0-0.454 0.068-0.645 0.195-0.189 0.128-0.337 0.305-0.425 0.513l-0.003 0.008c-0.056 0.131-0.088 0.283-0.088 0.444 0 0.080 0.008 0.158 0.024 0.234l-0.001-0.007c0.048 0.234 0.16 0.436 0.318 0.594v0c0.158 0.157 0.36 0.27 0.587 0.316l0.007 0.001c0.225 0.045 0.458 0.022 0.67-0.066 0.216-0.091 0.393-0.238 0.518-0.423l0.003-0.004c0.122-0.181 0.196-0.404 0.196-0.644 0 0 0 0 0 0v0c-0-0.32-0.13-0.61-0.34-0.819l-0-0c-0.21-0.21-0.5-0.34-0.82-0.34h-0z"></path>
<path fill="#e6e6e6" style="fill: var(--color2, #e6e6e6)" d="M29.725 10.277c-0.015 0.015-0.035 0.024-0.058 0.024s-0.043-0.009-0.058-0.024l-0.308-0.307c-0.007-0.007-0.016-0.011-0.026-0.011s-0.019 0.004-0.026 0.011v0l-0.308 0.307c-0.015 0.015-0.035 0.024-0.058 0.024s-0.043-0.009-0.058-0.024v0c-0.015-0.015-0.024-0.035-0.024-0.058s0.009-0.043 0.024-0.058v0l0.308-0.307c0.007-0.007 0.011-0.016 0.011-0.026 0-0 0-0 0-0v0c0-0 0-0 0-0 0-0.010-0.004-0.019-0.011-0.026v0l-0.308-0.307c-0.015-0.015-0.024-0.035-0.024-0.058s0.009-0.043 0.024-0.058v0c0.015-0.015 0.035-0.024 0.058-0.024s0.043 0.009 0.058 0.024v0l0.308 0.307c0.007 0.007 0.016 0.011 0.026 0.011s0.019-0.004 0.026-0.011v0l0.308-0.307c0.015-0.015 0.035-0.024 0.058-0.024v0c0 0 0 0 0 0 0.045 0 0.082 0.037 0.082 0.082v0c0 0.022-0.009 0.043-0.024 0.058l-0.308 0.307c-0.007 0.007-0.011 0.016-0.011 0.026s0.004 0.019 0.011 0.026v0l0.308 0.307c0.015 0.015 0.024 0.035 0.024 0.058s-0.009 0.043-0.024 0.058v0z"></path>
<path fill="#f0af2e" style="fill: var(--color9, #f0af2e)" d="M25.596 15.18c-0 0-0 0-0 0-0.531 0-0.986-0.322-1.181-0.782l-0.003-0.008c-0.062-0.145-0.098-0.313-0.098-0.49 0-0.088 0.009-0.175 0.026-0.258l-0.001 0.008c0.104-0.509 0.498-0.903 0.999-1.005l0.008-0.001c0.075-0.016 0.162-0.025 0.25-0.025 0.442 0 0.832 0.224 1.063 0.565l0.003 0.005c0.141 0.211 0.216 0.458 0.216 0.711-0 0.354-0.144 0.674-0.376 0.905v0c-0.232 0.232-0.552 0.375-0.906 0.376h-0zM25.596 12.741c-0.23 0-0.454 0.068-0.645 0.195-0.189 0.128-0.336 0.304-0.424 0.513l-0.003 0.008c-0.056 0.131-0.088 0.284-0.088 0.444 0 0.32 0.13 0.61 0.34 0.82l0 0c0.21 0.21 0.5 0.339 0.82 0.339 0.4 0 0.754-0.203 0.962-0.511l0.003-0.004c0.122-0.181 0.196-0.404 0.196-0.644v0c-0-0.32-0.13-0.61-0.34-0.819v0c-0.21-0.21-0.5-0.339-0.82-0.34h-0z"></path>
<path fill="#f0af2e" style="fill: var(--color9, #f0af2e)" d="M25.475 14.365c-0.029-0-0.055-0.010-0.077-0.026l0 0-0.001-0.001-0.287-0.219c-0.026-0.020-0.044-0.050-0.049-0.084l-0-0.001c-0.001-0.005-0.001-0.011-0.001-0.017 0-0.065 0.048-0.118 0.11-0.127l0.001-0c0.005-0.001 0.011-0.001 0.017-0.001 0.029 0 0.056 0.010 0.078 0.026l-0-0 0.186 0.143 0.439-0.572c0.010-0.013 0.023-0.024 0.037-0.033s0.030-0.014 0.047-0.016c0.005-0.001 0.011-0.001 0.016-0.001 0.012 0 0.023 0.002 0.034 0.005l-0.001-0c0.016 0.004 0.031 0.012 0.045 0.022l-0.003 0.004 0.003-0.004c0.027 0.021 0.044 0.051 0.049 0.084 0.001 0.005 0.001 0.011 0.001 0.017 0 0.029-0.010 0.056-0.026 0.077l0-0-0.517 0.673c-0.012 0.015-0.027 0.028-0.044 0.036l-0.001 0c-0.016 0.008-0.035 0.013-0.055 0.013-0 0-0.001 0-0.001 0h0z"></path>
<path fill="#e6e6e6" style="fill: var(--color2, #e6e6e6)" d="M29.264 15.18c-0 0-0 0-0 0-0.531 0-0.986-0.322-1.181-0.782l-0.003-0.008c-0.062-0.145-0.097-0.313-0.097-0.49 0-0.354 0.143-0.674 0.375-0.906v0c0.232-0.232 0.553-0.375 0.907-0.375 0.177 0 0.346 0.036 0.499 0.101l-0.008-0.003c0.238 0.1 0.434 0.263 0.572 0.467l0.003 0.005c0.141 0.211 0.216 0.458 0.216 0.711-0 0.354-0.144 0.674-0.376 0.905l-0 0c-0.232 0.232-0.552 0.375-0.906 0.376h-0zM29.264 12.741c-0.23 0-0.454 0.068-0.645 0.195-0.313 0.211-0.516 0.563-0.516 0.964 0 0.32 0.13 0.61 0.34 0.82l0 0c0.158 0.157 0.36 0.27 0.587 0.316l0.008 0.001c0.225 0.045 0.458 0.022 0.67-0.066 0.216-0.091 0.393-0.238 0.518-0.423l0.003-0.004c0.122-0.181 0.196-0.404 0.196-0.644v0c-0-0.32-0.13-0.61-0.34-0.819v0c-0.21-0.21-0.5-0.339-0.82-0.34h-0z"></path>
<path fill="#e6e6e6" style="fill: var(--color2, #e6e6e6)" d="M29.725 14.343c-0.015 0.015-0.035 0.024-0.058 0.024s-0.043-0.009-0.058-0.024l-0.308-0.307c-0.007-0.007-0.016-0.011-0.026-0.011s-0.019 0.004-0.026 0.011v0l-0.308 0.307c-0.015 0.015-0.035 0.024-0.058 0.024s-0.043-0.009-0.058-0.024v0c-0.015-0.015-0.024-0.035-0.024-0.058v0c0-0.022 0.009-0.043 0.024-0.058l0.308-0.307c0.007-0.007 0.011-0.016 0.011-0.026v-0c0-0 0-0 0-0 0-0.010-0.004-0.019-0.011-0.026v0l-0.308-0.307c-0.015-0.015-0.024-0.035-0.024-0.058s0.009-0.043 0.024-0.058v0c0.015-0.015 0.035-0.024 0.058-0.024 0 0 0 0 0 0h-0c0.022 0 0.043 0.008 0.058 0.024l0.308 0.307c0.007 0.007 0.016 0.011 0.026 0.011s0.019-0.004 0.026-0.011v0l0.308-0.307c0.015-0.015 0.035-0.024 0.058-0.024v0c0 0 0 0 0 0 0.045 0 0.082 0.037 0.082 0.082v0c0 0.022-0.009 0.043-0.024 0.058l-0.308 0.307c-0.007 0.007-0.011 0.016-0.011 0.026s0.004 0.019 0.011 0.026v0l0.308 0.307c0.015 0.015 0.024 0.036 0.024 0.058s-0.008 0.043-0.024 0.058zM25.596 19.246c-0.265-0-0.512-0.081-0.717-0.219l0.005 0.003c-0.209-0.141-0.372-0.337-0.469-0.566l-0.003-0.008c-0.062-0.145-0.098-0.313-0.098-0.49 0-0.088 0.009-0.174 0.026-0.258l-0.001 0.008c0.104-0.509 0.498-0.903 0.999-1.005l0.008-0.001c0.075-0.016 0.162-0.025 0.25-0.025 0.442 0 0.832 0.224 1.063 0.564l0.003 0.005c0.141 0.211 0.216 0.458 0.216 0.711-0 0.354-0.144 0.674-0.376 0.905v0c-0.232 0.232-0.552 0.375-0.906 0.375h-0zM25.596 16.806c-0.23 0-0.454 0.068-0.645 0.195-0.189 0.128-0.336 0.305-0.424 0.513l-0.003 0.008c-0.056 0.131-0.088 0.284-0.088 0.444 0 0.32 0.13 0.61 0.34 0.82l0 0c0.21 0.21 0.5 0.339 0.82 0.339 0.4 0 0.754-0.203 0.962-0.511l0.003-0.004c0.122-0.181 0.196-0.404 0.196-0.644 0 0 0 0 0 0v0c-0-0.32-0.13-0.61-0.34-0.819v0c-0.21-0.21-0.5-0.339-0.82-0.34h-0z"></path>
<path fill="#e6e6e6" style="fill: var(--color2, #e6e6e6)" d="M25.475 18.431c-0.029-0-0.055-0.010-0.077-0.026l0 0-0.001-0.001-0.287-0.219c-0.026-0.020-0.044-0.050-0.049-0.084l-0-0.001c-0.001-0.005-0.001-0.011-0.001-0.017 0-0.065 0.048-0.118 0.11-0.127l0.001-0c0.005-0.001 0.011-0.001 0.017-0.001 0.029 0 0.056 0.010 0.078 0.027l-0-0 0.186 0.142 0.439-0.572c0.010-0.013 0.023-0.025 0.037-0.033s0.029-0.014 0.046-0.016l0.001-0c0.005-0.001 0.011-0.001 0.017-0.001 0.012 0 0.023 0.002 0.034 0.004l-0.001-0c0.016 0.004 0.031 0.012 0.045 0.022l-0.003 0.004 0.003-0.004c0.027 0.021 0.044 0.051 0.049 0.084 0.001 0.005 0.001 0.011 0.001 0.017 0 0.029-0.010 0.056-0.026 0.077l0-0-0.517 0.673c-0.012 0.015-0.027 0.028-0.044 0.036l-0.001 0c-0.016 0.008-0.035 0.013-0.055 0.013-0 0-0.001 0-0.001 0h0zM29.264 19.246c-0 0-0 0-0 0-0.531 0-0.986-0.322-1.181-0.782l-0.003-0.008c-0.062-0.145-0.097-0.313-0.097-0.49 0-0.354 0.143-0.674 0.375-0.906v0c0.232-0.232 0.553-0.375 0.907-0.375 0.177 0 0.346 0.036 0.499 0.101l-0.008-0.003c0.238 0.1 0.434 0.263 0.572 0.467l0.003 0.005c0.141 0.211 0.216 0.458 0.216 0.712-0 0.354-0.144 0.674-0.376 0.905l-0 0c-0.232 0.232-0.552 0.375-0.906 0.375h-0zM29.264 16.806c-0.23 0-0.454 0.068-0.645 0.195-0.313 0.211-0.516 0.563-0.516 0.964 0 0.32 0.13 0.61 0.34 0.82l0 0c0.158 0.157 0.36 0.27 0.587 0.316l0.008 0.001c0.225 0.045 0.458 0.022 0.67-0.066 0.216-0.091 0.393-0.238 0.518-0.423l0.003-0.004c0.122-0.181 0.196-0.404 0.196-0.644 0 0 0 0 0 0v0c-0-0.32-0.13-0.61-0.34-0.819v0c-0.21-0.21-0.5-0.339-0.82-0.34h-0z"></path>
<path fill="#e6e6e6" style="fill: var(--color2, #e6e6e6)" d="M29.725 18.408c-0.015 0.015-0.035 0.024-0.058 0.024s-0.043-0.009-0.058-0.024l-0.308-0.307c-0.007-0.007-0.016-0.011-0.026-0.011s-0.019 0.004-0.026 0.011v0l-0.308 0.307c-0.015 0.015-0.035 0.024-0.058 0.024s-0.043-0.009-0.058-0.024v0c-0.015-0.015-0.024-0.035-0.024-0.058v0c0-0.022 0.009-0.043 0.024-0.058l0.308-0.307c0.007-0.007 0.011-0.016 0.011-0.026s-0.004-0.019-0.011-0.026v0l-0.308-0.307c-0.015-0.015-0.024-0.035-0.024-0.058s0.009-0.043 0.024-0.058v0c0.015-0.015 0.035-0.024 0.058-0.024 0 0 0 0 0 0h-0c0.022 0 0.043 0.008 0.058 0.024l0.308 0.307c0.007 0.007 0.016 0.011 0.026 0.011s0.019-0.004 0.026-0.011v0l0.308-0.307c0.015-0.015 0.035-0.024 0.058-0.024v0c0.022 0 0.043 0.009 0.058 0.024s0.024 0.035 0.024 0.058-0.009 0.043-0.024 0.058v0l-0.308 0.307c-0.007 0.007-0.011 0.016-0.011 0.026s0.004 0.019 0.011 0.026v0l0.308 0.307c0.015 0.015 0.024 0.036 0.024 0.058s-0.008 0.043-0.024 0.058z"></path>
<path fill="#3f3d56" style="fill: var(--color7, #3f3d56)" d="M46.857 31.997h-24.21c-0 0-0 0-0 0-0.035 0-0.063-0.028-0.063-0.063 0-0 0-0 0-0v0c0-0.017 0.007-0.033 0.019-0.045s0.028-0.019 0.045-0.019h24.21c0.017 0 0.033 0.007 0.045 0.019s0.019 0.027 0.019 0.045-0.007 0.033-0.019 0.045v0c-0.012 0.012-0.028 0.019-0.045 0.019z"></path>
<path fill="#ffb8b8" style="fill: var(--color10, #ffb8b8)" d="M26.094 14.674c0.094 0.058 0.208 0.092 0.331 0.092 0.172 0 0.329-0.068 0.444-0.179l-0 0c0.066-0.063 0.118-0.14 0.152-0.226l0.002-0.004 2.269 0.075-0.616-1.005-2.061 0.083c-0.057-0.018-0.123-0.029-0.191-0.029-0.26 0-0.484 0.154-0.585 0.376l-0.002 0.004c-0.035 0.077-0.056 0.167-0.056 0.261 0 0.233 0.125 0.437 0.311 0.55l0.003 0.002zM38.89 19.585c0.059-0.068 0.105-0.149 0.132-0.238l0.001-0.005c0.026-0.090 0.032-0.184 0.018-0.276-0.031-0.191-0.142-0.352-0.298-0.447l-0.003-0.002 0.472-2.219-1.099 0.43-0.28 2.041c-0.045 0.086-0.072 0.187-0.072 0.295 0 0.22 0.111 0.415 0.28 0.53l0.002 0.001c0.101 0.069 0.226 0.11 0.361 0.11 0.029 0 0.059-0.002 0.087-0.006l-0.003 0c0.161-0.022 0.301-0.101 0.401-0.216l0.001-0.001zM33.574 31.148h-0.779l-0.371-3.002h1.15z"></path>
<path fill="#2f2e41" style="fill: var(--color4, #2f2e41)" d="M33.772 31.902l-2.512-0v-0.032c0 0 0 0 0 0 0-0.27 0.109-0.514 0.286-0.691v0c0.088-0.088 0.194-0.16 0.311-0.209l0.006-0.002c0.111-0.047 0.239-0.074 0.374-0.074h1.534z"></path>
<path fill="#ffb8b8" style="fill: var(--color10, #ffb8b8)" d="M37.386 31.148h-0.779l-0.371-3.002h1.15z"></path>
<path fill="#2f2e41" style="fill: var(--color4, #2f2e41)" d="M37.585 31.902l-2.512-0v-0.032c0-0.128 0.025-0.255 0.074-0.374 0.102-0.24 0.289-0.427 0.523-0.526l0.006-0.002c0.111-0.047 0.239-0.074 0.374-0.074h1.534zM33.655 29.581l-1.103-0.044c-0.078-0.003-0.148-0.038-0.197-0.091l-0-0c-0.048-0.051-0.077-0.12-0.077-0.195 0-0.003 0-0.006 0-0.009v0l0.311-10.18 0.020-0.007c1.933-0.698 3.532-0.646 4.888 0.161l0.015 0.009 0.186 9.915c0 0.001 0 0.003 0 0.005 0 0.038-0.007 0.075-0.021 0.108l0.001-0.002c-0.029 0.072-0.084 0.128-0.153 0.157l-0.002 0.001c-0.033 0.014-0.070 0.022-0.11 0.022-0 0-0 0-0 0h-0.93c-0.069-0-0.133-0.025-0.182-0.066l0.001 0c-0.050-0.041-0.085-0.098-0.099-0.163l-0-0.002-1.267-6.437c-0.005-0.023-0.017-0.042-0.034-0.056l-0-0c-0.016-0.013-0.036-0.020-0.059-0.020-0.001 0-0.003 0-0.004 0h0c-0.023 0.001-0.044 0.010-0.061 0.025s-0.027 0.036-0.030 0.059l-0.797 6.559c-0.019 0.142-0.139 0.251-0.284 0.251h-0c-0.004 0-0.008-0-0.011-0z"></path>
<path fill="#ffb8b8" style="fill: var(--color10, #ffb8b8)" d="M34.728 10.135c0.862 0 1.561-0.698 1.561-1.559s-0.699-1.559-1.561-1.559c-0.862 0-1.561 0.698-1.561 1.559s0.699 1.559 1.561 1.559z"></path>
<path fill="#ccc" style="fill: var(--color11, #ccc)" d="M27.391 14.306c-0.008-0.026-0.013-0.055-0.013-0.086s0.005-0.060 0.014-0.087l-0.001 0.002 0.162-0.518c0.019-0.058 0.053-0.106 0.098-0.141l0.001-0.001c0.044-0.034 0.1-0.056 0.161-0.059l0.001-0 2.048-0.090 3.322-1.701c0.084-0.028 0.18-0.044 0.281-0.044 0.027 0 0.054 0.001 0.080 0.003l-0.003-0c0.128 0.011 0.245 0.047 0.351 0.102l-0.005-0.002c0.11 0.058 0.204 0.133 0.28 0.223l0.001 0.001c0.135 0.159 0.217 0.367 0.217 0.594 0 0.027-0.001 0.055-0.004 0.082l0-0.003c-0.011 0.128-0.047 0.245-0.102 0.35l0.002-0.005c-0.058 0.11-0.133 0.203-0.223 0.28l-0.001 0.001c-0.089 0.075-0.194 0.134-0.309 0.171l-0.007 0.002-2.036 1.179c-0.424 0.25-0.934 0.397-1.479 0.397-0.201 0-0.396-0.020-0.586-0.058l0.019 0.003-2.050-0.401c-0.042-0.008-0.078-0.025-0.11-0.047l0.001 0.001c-0.033-0.023-0.060-0.052-0.080-0.086l-0.001-0.001c-0.011-0.017-0.020-0.038-0.027-0.059l-0.001-0.002zM38.823 18.148c-0.029 0.011-0.062 0.017-0.097 0.017-0.026 0-0.051-0.003-0.075-0.010l0.002 0-0.524-0.139c-0.059-0.016-0.108-0.049-0.145-0.092l-0-0c-0.036-0.043-0.061-0.098-0.066-0.158l-0-0.001-0.178-2.040-1.843-3.243c-0.036-0.094-0.057-0.203-0.057-0.317 0-0.013 0-0.027 0.001-0.040l-0 0.002c0.005-0.121 0.034-0.24 0.085-0.349 0.105-0.221 0.288-0.391 0.513-0.475l0.006-0.002c0.094-0.035 0.203-0.056 0.316-0.056 0.268 0 0.51 0.115 0.679 0.298l0.001 0.001c0.079 0.086 0.143 0.188 0.185 0.301l0.002 0.006 1.267 1.981c0.29 0.448 0.463 0.996 0.463 1.584 0 0.156-0.012 0.31-0.036 0.459l0.002-0.017-0.314 2.063c-0.013 0.082-0.060 0.152-0.125 0.195l-0.001 0.001c-0.017 0.011-0.037 0.021-0.058 0.029l-0.002 0.001z"></path>
<path fill="#ccc" style="fill: var(--color11, #ccc)" d="M33.021 11.345c0.263-0.288 0.586-0.516 0.95-0.666l0.018-0.006c0.295-0.122 0.637-0.193 0.996-0.193 0.059 0 0.117 0.002 0.175 0.006l-0.008-0c0.026 0.002 0.052 0.003 0.078 0.005 0.398 0.032 0.763 0.148 1.086 0.328l-0.013-0.007c0.336 0.188 0.618 0.434 0.839 0.728l0.005 0.007c0.335 0.443 0.536 1.003 0.536 1.611 0 0.197-0.021 0.389-0.062 0.574l0.003-0.018c-0.115 0.522-0.182 1.121-0.182 1.736 0 0.919 0.148 1.804 0.421 2.631l-0.017-0.059 0.419 1.299c0.009 0.026 0.014 0.056 0.014 0.088 0 0.015-0.001 0.029-0.003 0.043l0-0.002c-0.007 0.046-0.024 0.086-0.048 0.121l0.001-0.001c-0.049 0.071-0.129 0.118-0.22 0.123l-0.001 0-2.14 0.115-0.548-0.945v0.975l-2.601 0.14c-0.005 0-0.010 0.001-0.016 0.001-0.083-0-0.158-0.035-0.21-0.092l-0-0c-0.026-0.028-0.046-0.062-0.059-0.099l-0.001-0.002c-0.010-0.028-0.016-0.060-0.016-0.093 0-0.008 0-0.016 0.001-0.024l-0 0.001 0.294-3.642-0.369-2.474c-0.019-0.12-0.030-0.258-0.030-0.399 0-0.699 0.269-1.336 0.709-1.812l-0.002 0.002z"></path>
<path fill="#2f2e41" style="fill: var(--color4, #2f2e41)" d="M35.812 10.064c-0.144 0.083-0.715 0.138-0.756-0.023l-0.001-0.003c-0.028-0.118-0.005-0.242 0.003-0.363s-0.004-0.255-0.087-0.344c-0.154-0.166-0.429-0.078-0.652-0.12-0.134-0.031-0.247-0.107-0.324-0.212l-0.001-0.002c-0.066-0.090-0.106-0.202-0.106-0.324 0-0.018 0.001-0.035 0.002-0.053l-0 0.002c0.003-0.025 0.008-0.051 0.014-0.076 0.006-0.027 0.010-0.058 0.010-0.090 0-0.234-0.19-0.424-0.424-0.424-0.009 0-0.018 0-0.027 0.001l0.001-0c-0.225 0.013-0.469 0.081-0.655-0.086-0.144-0.129-0.179-0.465-0.116-0.647 0.106-0.307 0.789-0.468 1.087-0.556 0.215-0.064 0.461-0.101 0.717-0.101 0.55 0 1.060 0.172 1.479 0.465l-0.008-0.006c0.188 0.132 0.364 0.299 0.444 0.515s0.041 0.488-0.139 0.63c0.197 0.208 0.318 0.489 0.318 0.799 0 0.118-0.018 0.232-0.050 0.34l0.002-0.008c-0.089 0.288-0.516 0.563-0.731 0.687z"></path>
<path fill="#f0af2e" style="fill: var(--color9, #f0af2e)" d="M14.273 10.144h-9.993c-0.134-0-0.255-0.055-0.343-0.142v0c-0.088-0.088-0.142-0.209-0.142-0.343v0c0-0.129 0.051-0.252 0.142-0.343 0.088-0.088 0.209-0.142 0.343-0.142h9.993c0.134 0 0.255 0.055 0.343 0.142v0c0.088 0.088 0.142 0.209 0.142 0.343 0 0 0 0 0 0v0c0 0 0 0 0 0 0 0.134-0.054 0.255-0.142 0.343v0c-0.088 0.088-0.209 0.142-0.343 0.142h-0z"></path>
<path fill="#3f3d56" style="fill: var(--color7, #3f3d56)" d="M20.442 10.558h-17.156c-0.035 0-0.063-0.028-0.063-0.063s0.028-0.063 0.063-0.063v0h17.156c0.035 0 0.063 0.029 0.063 0.064 0 0.017-0.007 0.033-0.018 0.045v0c-0.011 0.011-0.027 0.019-0.045 0.019-0 0-0 0-0 0v0z"></path>
<path fill="#f0af2e" style="fill: var(--color9, #f0af2e)" d="M14.273 14.21h-9.993c-0.129 0-0.252-0.051-0.344-0.142-0.088-0.088-0.142-0.209-0.142-0.343s0.054-0.255 0.142-0.343v0c0.088-0.088 0.209-0.142 0.344-0.142 0 0 0 0 0 0h9.993c0.134 0 0.255 0.055 0.343 0.142v0c0.088 0.088 0.142 0.209 0.142 0.343 0 0 0 0 0 0v0c0 0 0 0 0 0 0 0.134-0.054 0.255-0.142 0.343v0c-0.088 0.088-0.209 0.142-0.343 0.142h-0z"></path>
<path fill="#3f3d56" style="fill: var(--color7, #3f3d56)" d="M20.442 14.624h-17.156c-0.035 0-0.063-0.028-0.063-0.063s0.028-0.063 0.063-0.063v0h17.156c0.035 0 0.063 0.029 0.063 0.064 0 0.018-0.007 0.033-0.018 0.045v0c-0.011 0.011-0.027 0.018-0.045 0.018-0 0-0 0-0 0v0z"></path>
<path fill="#f2f2f2" style="fill: var(--color1, #f2f2f2)" d="M14.273 18.275h-9.993c-0.129 0-0.252-0.051-0.344-0.142-0.088-0.088-0.142-0.209-0.142-0.343s0.054-0.255 0.142-0.343v0c0.088-0.088 0.209-0.142 0.344-0.142h9.993c0.134 0 0.255 0.055 0.343 0.142v0c0.088 0.088 0.142 0.209 0.142 0.343 0 0 0 0 0 0v0c0 0 0 0 0 0 0 0.134-0.054 0.255-0.142 0.343v0c-0.088 0.088-0.209 0.142-0.343 0.142h-0z"></path>
<path fill="#3f3d56" style="fill: var(--color7, #3f3d56)" d="M20.442 18.689h-17.156c-0.035 0-0.063-0.028-0.063-0.063s0.028-0.063 0.063-0.063h17.156c0.017 0 0.033 0.007 0.045 0.018s0.019 0.028 0.019 0.045c0 0 0 0 0 0 0 0.035-0.028 0.063-0.063 0.063-0 0-0 0-0 0v0z"></path>
</symbol>
</defs>
</svg>
