<svg xmlns="http://www.w3.org/2000/svg" aria-hidden="true" style="position:absolute;width:0;height:0;overflow:hidden">
    <defs>
        <symbol id="icon-question" viewBox="0 0 24 32">
            <path d="M9.743 20.844c0-1.037.164-1.955.492-2.755.358-.8.79-1.511 1.296-2.133.536-.622 1.102-1.2 1.698-1.733s1.147-1.037 1.654-1.511a7.656 7.656 0 0 0 1.296-1.556 3.126 3.126 0 0 0 .536-1.778c0-1.067-.447-1.926-1.341-2.578-.864-.652-2.026-.978-3.486-.978-1.4 0-2.652.296-3.754.889a7.305 7.305 0 0 0-2.726 2.4L0 5.955c1.192-1.807 2.845-3.244 4.961-4.311C7.076.548 9.639 0 12.648 0c2.235 0 4.201.326 5.899.978 1.698.622 3.024 1.541 3.978 2.756C23.508 4.949 24 6.445 24 8.223c0 1.156-.179 2.178-.536 3.067s-.819 1.659-1.385 2.311a17.704 17.704 0 0 1-1.832 1.822c-.626.563-1.222 1.111-1.788 1.644s-1.043 1.096-1.43 1.689c-.357.593-.536 1.289-.536 2.089H9.744zM13.14 32c-1.251 0-2.279-.4-3.084-1.2s-1.207-1.748-1.207-2.844c0-1.126.402-2.059 1.207-2.8.804-.77 1.832-1.156 3.084-1.156 1.281 0 2.309.385 3.084 1.156.804.741 1.207 1.674 1.207 2.8 0 1.096-.402 2.044-1.207 2.844-.775.8-1.803 1.2-3.084 1.2z"/>
        </symbol>
        <symbol id="icon-circleface" viewBox="0 0 32 32">
            <path stroke-linecap="round" stroke-width="1.208" d="M11.032 27.032c6.093 2.713 13.23-.027 15.943-6.12s-.027-13.23-6.12-15.943c-6.093-2.713-13.23.027-15.943 6.12s.027 13.23 6.12 15.943z"/>
            <path stroke-linecap="round" stroke-width="3.019" d="M13.49 11.864a1.219 1.219 0 1 0 .991-2.226 1.219 1.219 0 0 0-.991 2.226zM20.359 14.966a1.219 1.219 0 1 0 .991-2.226 1.219 1.219 0 0 0-.991 2.226z"/>
            <path d="M17.438 21.465c-.696 1.564-2.802 2.148-4.703 1.302s-2.876-2.802-2.179-4.366 2.802-2.148 4.703-1.302c1.901.846 2.876 2.802 2.179 4.366z"/>
        </symbol>
        <symbol id="icon-zoom" viewBox="0 0 140 32">
            <path d="M29.435 31.531H4.345a4.325 4.325 0 0 1-4.012-2.685 4.344 4.344 0 0 1 .936-4.737L18.657 6.677H6.2c-1.644 0-3.221-.655-4.384-1.82S0 2.111 0 .462h23.142a4.338 4.338 0 0 1 4.012 2.685 4.343 4.343 0 0 1-.941 4.737L8.831 25.322h14.411c3.421 0 6.199 2.785 6.199 6.215l-.006-.006zm110.929-19.414c-.007-2.448-.753-4.837-2.139-6.852s-3.349-3.562-5.63-4.438c-2.28-.876-4.772-1.039-7.146-.468s-4.521 1.849-6.157 3.666a12.022 12.022 0 0 0-8.983-4.022c-6.668 0-12.083 5.43-12.083 12.114v19.414c1.644 0 3.221-.655 4.383-1.82s1.816-2.746 1.816-4.395V12.117c0-1.565.62-3.066 1.724-4.173a5.878 5.878 0 0 1 8.324 0 5.91 5.91 0 0 1 1.724 4.173v13.199c0 3.436 2.772 6.215 6.199 6.215V12.117c0-1.564.62-3.065 1.723-4.171s2.6-1.728 4.161-1.728 3.057.621 4.16 1.728a5.905 5.905 0 0 1 1.724 4.171v13.199c0 3.436 2.778 6.215 6.199 6.215V12.117zm-45.238 3.882a16.031 16.031 0 0 1-4.674 11.312 15.94 15.94 0 0 1-11.284 4.686 15.926 15.926 0 0 1-11.284-4.686 16.031 16.031 0 0 1 0-22.625C70.877 1.685 74.936 0 79.168 0s8.291 1.686 11.284 4.686c2.993 3 4.674 7.07 4.674 11.313zm-6.199 0c0-2.595-1.029-5.085-2.86-6.92s-4.313-2.866-6.902-2.866c-2.589 0-5.071 1.031-6.902 2.866s-2.859 4.324-2.859 6.92c0 2.595 1.028 5.085 2.859 6.92s4.313 2.866 6.902 2.866 5.071-1.031 6.902-2.866a9.797 9.797 0 0 0 2.86-6.92zm-28.191 0c0 4.244-1.682 8.314-4.675 11.315s-7.053 4.687-11.286 4.687-8.293-1.686-11.286-4.687c-2.993-3.001-4.675-7.071-4.675-11.315s1.681-8.312 4.674-11.313C36.481 1.686 40.539 0 44.772 0s8.291 1.686 11.284 4.686c2.993 3 4.674 7.07 4.674 11.313h.006zm-6.199 0a9.799 9.799 0 0 0-2.859-6.92 9.736 9.736 0 0 0-13.804 0 9.799 9.799 0 0 0-2.859 6.92c0 2.595 1.028 5.085 2.859 6.92s4.313 2.866 6.902 2.866 5.072-1.031 6.902-2.866a9.796 9.796 0 0 0 2.859-6.92z"/>
        </symbol>
        <symbol id="icon-galochka" viewBox="0 0 37 32">
            <path d="M31.243 0 12.22 19.533l-6.169-6.335L0 19.411 12.26 32 37.333 6.254 31.243 0z"/>
        </symbol>
        <symbol id="icon-ravno" viewBox="0 0 32 32">
            <path d="M2.667 8.793V0h26.667v8.793H2.667zm0 17.874v-8.793h26.667v8.793H2.667z"/>
        </symbol>
        <symbol id="icon-Mustage" viewBox="0 0 109 32">
            <path d="M22.424 3.849v19.854h-3.982V10.789l-5.319 12.914h-3.015L4.76 10.789v12.914H.778V3.849h4.523l6.315 14.763 6.315-14.763h4.494zm15.4 4.096v15.758h-4.011v-1.991c-.512.683-1.185 1.223-2.02 1.621a6.265 6.265 0 0 1-2.674.569c-1.233 0-2.323-.256-3.271-.768-.948-.531-1.697-1.299-2.247-2.304-.531-1.024-.796-2.238-.796-3.641V7.945h3.982v8.676c0 1.252.313 2.219.939 2.901.626.664 1.479.996 2.56.996 1.1 0 1.963-.332 2.588-.996.626-.683.939-1.65.939-2.901V7.945h4.011zM44.37 23.96c-1.289 0-2.446-.228-3.47-.683-1.024-.474-1.839-1.109-2.446-1.906a4.847 4.847 0 0 1-.967-2.645h4.011c.076.607.37 1.109.882 1.508.531.398 1.185.597 1.963.597.759 0 1.346-.152 1.764-.455.436-.303.654-.692.654-1.166 0-.512-.265-.891-.796-1.138-.512-.265-1.337-.55-2.475-.853-1.176-.284-2.143-.578-2.901-.882a5.147 5.147 0 0 1-1.934-1.394c-.531-.626-.796-1.47-.796-2.532 0-.872.247-1.669.74-2.389.512-.721 1.233-1.289 2.162-1.707.948-.417 2.057-.626 3.328-.626 1.877 0 3.375.474 4.494 1.422 1.119.929 1.735 2.19 1.849 3.783H46.62c-.057-.626-.322-1.119-.796-1.479-.455-.379-1.071-.569-1.849-.569-.721 0-1.28.133-1.678.398-.379.265-.569.635-.569 1.109 0 .531.265.939.796 1.223.531.265 1.356.54 2.475.825 1.138.284 2.076.578 2.816.882s1.375.777 1.906 1.422c.55.626.834 1.46.853 2.503a4.12 4.12 0 0 1-.768 2.446c-.493.721-1.214 1.289-2.162 1.707-.929.398-2.02.597-3.271.597zm10.693-12.743v7.623c0 .531.123.92.37 1.166.265.228.702.341 1.308.341h1.849v3.356h-2.503c-3.356 0-5.035-1.631-5.035-4.892v-7.595h-1.877V7.945h1.877V4.048h4.011v3.897h3.527v3.271h-3.527zm1.954 4.551c0-1.593.313-3.006.939-4.238.645-1.233 1.508-2.181 2.588-2.844 1.1-.664 2.323-.996 3.669-.996 1.176 0 2.2.237 3.072.711.891.474 1.602 1.071 2.133 1.792V7.946h4.011v15.758h-4.011V21.4c-.512.74-1.223 1.356-2.133 1.849-.891.474-1.925.711-3.1.711a6.767 6.767 0 0 1-3.641-1.024c-1.081-.683-1.944-1.64-2.588-2.873-.626-1.252-.939-2.683-.939-4.295zm12.402.057c0-.967-.19-1.792-.569-2.475-.379-.702-.891-1.233-1.536-1.593-.645-.379-1.337-.569-2.076-.569s-1.422.18-2.048.54c-.626.36-1.138.891-1.536 1.593-.379.683-.569 1.498-.569 2.446s.19 1.783.569 2.503c.398.702.91 1.242 1.536 1.621a3.978 3.978 0 0 0 2.048.569c.74 0 1.432-.18 2.076-.54a4.13 4.13 0 0 0 1.536-1.593c.379-.702.569-1.536.569-2.503zm10.659-8.136c1.176 0 2.209.237 3.1.711.891.455 1.593 1.052 2.105 1.792V7.945h4.011v15.872c0 1.46-.294 2.759-.882 3.897-.588 1.157-1.47 2.067-2.645 2.731-1.176.683-2.598 1.024-4.267 1.024-2.238 0-4.077-.521-5.518-1.564-1.422-1.043-2.228-2.465-2.418-4.267h3.954c.209.721.654 1.289 1.337 1.707.702.436 1.545.654 2.532.654 1.157 0 2.095-.351 2.816-1.052.721-.683 1.081-1.726 1.081-3.129v-2.446c-.512.74-1.223 1.356-2.133 1.849-.891.493-1.915.74-3.072.74-1.327 0-2.541-.341-3.641-1.024s-1.972-1.64-2.617-2.873c-.626-1.252-.939-2.683-.939-4.295 0-1.593.313-3.006.939-4.238.645-1.233 1.508-2.181 2.588-2.844 1.1-.664 2.323-.996 3.669-.996zm5.205 8.136c0-.967-.19-1.792-.569-2.475-.379-.702-.891-1.233-1.536-1.593-.645-.379-1.337-.569-2.076-.569s-1.422.18-2.048.54c-.626.36-1.138.891-1.536 1.593-.379.683-.569 1.498-.569 2.446s.19 1.783.569 2.503c.398.702.91 1.242 1.536 1.621a3.978 3.978 0 0 0 2.048.569c.74 0 1.432-.18 2.076-.54a4.13 4.13 0 0 0 1.536-1.593c.379-.702.569-1.536.569-2.503zm19.136-.342c0 .569-.038 1.081-.114 1.536h-11.52c.095 1.138.493 2.029 1.195 2.674s1.564.967 2.588.967c1.479 0 2.532-.635 3.157-1.906h4.295c-.455 1.517-1.327 2.769-2.617 3.755-1.289.967-2.873 1.451-4.75 1.451-1.517 0-2.882-.332-4.096-.996a7.327 7.327 0 0 1-2.816-2.873c-.664-1.233-.996-2.655-.996-4.267 0-1.631.332-3.063.996-4.295s1.593-2.181 2.788-2.844c1.195-.664 2.569-.996 4.124-.996 1.498 0 2.835.322 4.011.967a6.67 6.67 0 0 1 2.759 2.759c.664 1.176.996 2.532.996 4.068zm-4.125-1.138c-.019-1.024-.389-1.839-1.109-2.446-.721-.626-1.602-.939-2.645-.939-.986 0-1.82.303-2.503.91-.664.588-1.071 1.413-1.223 2.475h7.481zm8.482-10.353v2.844l-6.542-2.987V.606l6.542 3.385z"/>
        </symbol>
        <symbol id="icon-plus" viewBox="0 0 32 32">
            <path d="M11.63 32V0h8.672v32H11.63zM0 20.225v-8.45h32v8.45H0z"/>
        </symbol>
        <symbol id="icon-menu" viewBox="0 0 32 32">
            <path d="M4 0h24a4 4 0 0 1 0 8H4a4 4 0 0 1 0-8zM4 12h24a4 4 0 0 1 0 8H4a4 4 0 0 1 0-8zM4 24h24a4 4 0 0 1 0 8H4a4 4 0 0 1 0-8z"/>
        </symbol>
        <symbol id="icon-body" viewBox="0 0 32 32">
            <path d="M16 12.8c1.819 0 3.563-.674 4.849-1.875s2.008-2.828 2.008-4.525-.723-3.325-2.008-4.525C19.563.675 17.819 0 16 0s-3.563.674-4.849 1.875C9.865 3.075 9.143 4.703 9.143 6.4s.722 3.325 2.008 4.525c1.286 1.2 3.03 1.875 4.849 1.875zM0 32c0-1.961.414-3.903 1.218-5.715s1.983-3.458 3.468-4.845 3.25-2.487 5.191-3.237c1.941-.75 4.022-1.137 6.123-1.137s4.182.386 6.123 1.137c1.941.751 3.705 1.851 5.191 3.237s2.664 3.033 3.468 4.845A14.077 14.077 0 0 1 32 32H0z"/>
        </symbol>
        <symbol id="icon-vector" viewBox="0 0 52 32">
            <path d="M23.334 28.887 2 7.377 7.332 2 26 20.822 44.668 2 50 7.377l-21.334 21.51C27.959 29.6 27 30 26 30s-1.959-.4-2.666-1.113z"/>
        </symbol>
        <symbol id="icon-VectorGal" viewBox="0 0 40 32">
            <path d="M33.782 1.02a3.668 3.668 0 0 1 5.115.039 3.712 3.712 0 0 1 .135 5.141L19.454 30.817a3.674 3.674 0 0 1-4.074.914 3.675 3.675 0 0 1-1.226-.815L1.17 17.862A3.693 3.693 0 0 1-.001 15.22a3.714 3.714 0 0 1 1.077-2.682 3.664 3.664 0 0 1 4.1-.763 3.68 3.68 0 0 1 1.195.857l10.275 10.325 17.042-21.83c.031-.038.063-.074.098-.109h-.005z"/>
        </symbol>
        <symbol id="icon-Frame-3" viewBox="0 0 32 32">
            <path d="m32 2.667-32 15 10.227 3.156L26 8.5 14.002 21.988l.01.003-.012-.003v7.345l5.735-5.576L27 25.999l5-23.333z"/>
        </symbol>
        <symbol id="icon-Vector11" viewBox="0 0 32 32">
            <path fill="#f0af2e" d="M16 0C7.168 0 0 7.168 0 16s7.168 16 16 16 16-7.168 16-16S24.832 0 16 0zm7.424 10.88c-.24 2.528-1.28 8.672-1.808 11.504-.224 1.2-.672 1.6-1.088 1.648-.928.08-1.632-.608-2.528-1.2-1.408-.928-2.208-1.504-3.568-2.4-1.584-1.04-.56-1.616.352-2.544.24-.24 4.336-3.968 4.416-4.304a.32.32 0 0 0-.08-.288c-.096-.08-.224-.048-.336-.032-.144.032-2.384 1.52-6.752 4.464-.64.432-1.216.656-1.728.64-.576-.016-1.664-.32-2.48-.592-1.008-.32-1.792-.496-1.728-1.056.032-.288.432-.576 1.184-.88 4.672-2.032 7.776-3.376 9.328-4.016 4.448-1.856 5.36-2.176 5.968-2.176.128 0 .432.032.624.192.16.128.208.304.224.432-.016.096.016.384 0 .608z" style="fill:var(--color1, #f0af2e)"/>
        </symbol>
        <symbol id="icon-undraw_learning_re_32qv-1-1" viewBox="0 0 54 32">
            <path fill="#e6e6e6" d="M16.933 18.886V1.748c0-.902.736-1.637 1.64-1.637H52.63c.904 0 1.64.734 1.64 1.637v17.138c0 .902-.736 1.637-1.64 1.637H18.573a1.64 1.64 0 0 1-1.64-1.637zM54.104 1.747c0-.812-.66-1.471-1.474-1.471H18.573c-.814 0-1.474.658-1.474 1.471v17.138c0 .812.66 1.471 1.474 1.471h23.165c6.829 0 12.366-5.524 12.366-12.339v-6.27z" style="fill:var(--color1, #e6e6e6)"/>
            <path fill="#fff" d="M28.931 3.228H9.844c-.566 0-1.026.459-1.026 1.024v6.996c0 .565.46 1.024 1.026 1.024h19.087c.566 0 1.026-.459 1.026-1.024V4.252c0-.565-.46-1.024-1.026-1.024z" style="fill:var(--color2, #fff)"/>
            <path fill="#3f3d56" d="M28.931 3.228H9.844c-.566 0-1.026.459-1.026 1.024v6.996c0 .565.46 1.024 1.026 1.024h19.087c.566 0 1.026-.459 1.026-1.024V4.252c0-.565-.46-1.024-1.026-1.024zm.919 8.02a.918.918 0 0 1-.918.916H9.845a.918.918 0 0 1-.918-.916V4.252c0-.506.412-.916.918-.916h19.087c.507 0 .918.411.918.916v6.996z" style="fill:var(--color3, #3f3d56)"/>
            <path fill="#f0af2e" d="M10.738 6.417h16.964a.29.29 0 1 1 0 .58H10.738a.29.29 0 1 1 0-.58zM10.738 8.325h6.154a.29.29 0 1 1 0 .58h-6.154a.29.29 0 1 1 0-.58z" style="fill:var(--color4, #f0af2e)"/>
            <path fill="#e6e6e6" d="M47.78 5.53H36.138a.333.333 0 1 1 0-.664H47.78a.333.333 0 1 1 0 .664zM49.987 12.727H33.765v-.083c5.341.817 10.754.75 16.222 0v.083zM47.78 9.761H36.138a.333.333 0 1 1 0-.664H47.78a.333.333 0 1 1 0 .664zM50.07 13.806H33.848v.083H50.07v-.083zM47.78 7.579H36.138a.333.333 0 1 1 0-.664H47.78a.333.333 0 1 1 0 .664zM50.07 14.968c-5.599-.38-11.037-.441-16.222 0v-.083H50.07v.083z" style="fill:var(--color1, #e6e6e6)"/>
            <path fill="#3f3d56" d="m27.682 13.617-.684-.323c.281.391.523 1.001.652 1.487.219-.453.573-1.006.922-1.337l-.723.186c.446-2.18 2.122-3.744 4.042-3.744V9.72c-2.005 0-3.753 1.63-4.209 3.898z" style="fill:var(--color3, #3f3d56)"/>
            <path fill="#f0af2e" d="M30.832 16.938h-4.324a.333.333 0 1 1 0-.664h4.324a.333.333 0 1 1 0 .664zM19.76 9.736a1.163 1.163 0 1 0-1.164-1.162c0 .642.521 1.162 1.164 1.162z" style="fill:var(--color4, #f0af2e)"/>
            <path fill="#fff" d="M20.366 7.894c-.055-.032-.14-.016-.171.045l-.415.821a1.8 1.8 0 0 0-.42-.455c-.053-.041-.14-.008-.171.045-.038.064-.009.129.045.17.193.149.342.349.442.57.038.084.176.079.215 0l.519-1.025c.03-.06.016-.135-.045-.17z" style="fill:var(--color2, #fff)"/>
            <path fill="#f0af2e" d="M33.731 6.334a1.163 1.163 0 1 0-1.164-1.162c0 .642.521 1.162 1.164 1.162z" style="fill:var(--color4, #f0af2e)"/>
            <path fill="#fff" d="M34.336 4.492c-.056-.032-.14-.016-.171.045l-.415.821a1.8 1.8 0 0 0-.42-.455c-.053-.041-.14-.008-.171.045-.038.064-.009.129.045.17.193.149.342.349.442.57.038.084.176.079.216 0l.519-1.025c.031-.06.016-.135-.045-.17z" style="fill:var(--color2, #fff)"/>
            <path fill="#f0af2e" d="M50.445 8.242a1.163 1.163 0 1 0-1.164-1.162c0 .642.521 1.162 1.164 1.162z" style="fill:var(--color4, #f0af2e)"/>
            <path fill="#fff" d="M51.051 6.4c-.056-.032-.14-.016-.171.045l-.415.821a1.818 1.818 0 0 0-.42-.455c-.053-.041-.14-.008-.171.045-.038.064-.009.129.045.17.193.149.342.349.443.57.038.084.176.079.215 0l.519-1.025c.03-.06.016-.135-.045-.17z" style="fill:var(--color2, #fff)"/>
            <path fill="#e6e6e6" d="M24.352 14.347h-2.804a.316.316 0 0 1-.316-.315 4.73 4.73 0 0 1 0-3.18c0-.174.142-.315.316-.315h2.804c.174 0 .316.141.316.315v3.18a.316.316 0 0 1-.316.315z" style="fill:var(--color1, #e6e6e6)"/>
            <path fill="#fff" d="M22.149 10.631a.821.821 0 0 0-.822.821v2.513c0 .159.13.289.289.289h1.551c.777 0 1.408-.629 1.408-1.404v-1.929a.29.29 0 0 0-.289-.289H22.15z" style="fill:var(--color2, #fff)"/>
            <path fill="#e6e6e6" d="M23.603 11.556H22.29c-.033 0-.06-.027-.06-.06s.027-.06.06-.06h1.313c.033 0 .06.027.06.06s-.027.06-.06.06zM23.603 12.833H22.29c-.033 0-.06-.027-.06-.06s.027-.06.06-.06h1.313c.033 0 .06.027.06.06s-.027.06-.06.06zM24.307 12.195h-2.722c-.033 0-.06-.027-.06-.06s.027-.06.06-.06h2.722c.033 0 .06.027.06.06s-.027.06-.06.06zM24.339 13.352h-1.136c-.033 0-.06-.027-.06-.06s.027-.06.06-.06h1.136c.033 0 .06.027.06.06s-.027.06-.06.06z" style="fill:var(--color1, #e6e6e6)"/>
            <path fill="#2f2e41" d="M5.032 5.648c.074-.34.096-.09.256-.398-.11.398.093.268.364.58 1.9.297 2.019-.352 2.722-.332h.004c.155-.003.234-.187.141-.31-.23-.304-.484-.773-.244-1.069.426-.523.051-1.597-.133-1.365 0-.895-1.105-1.482-1.533-1.337-.792.269-1.525.631-1.614 1.442a5.292 5.292 0 0 1-.055.378c-.046.255-.237.322-.171.572l.205.208c.096.367.066.752-.066 1.107-.073.197-.083.365.124.522z" style="fill:var(--color5, #2f2e41)"/>
            <path fill="#a0616a" d="M7.01 4.447c.658 0 1.191-.532 1.191-1.188S7.668 2.071 7.01 2.071s-1.191.532-1.191 1.188.533 1.188 1.191 1.188zM5.155 30.343l.613.015.342-2.749-.905-.021-.05 2.756z" style="fill:var(--color6, #a0616a)"/>
            <path fill="#2f2e41" d="M7.259 31.619c0 .103-.074.187-.164.187H5.878s-.12-.48-.608-.687l-.034.687h-.628l.076-1.105s-.168-.591.181-.893.066-.26.066-.26l.137-.684.949.111.007 1.073.46 1.066.675.333a.19.19 0 0 1 .099.172z" style="fill:var(--color5, #2f2e41)"/>
            <path fill="#a0616a" d="m5.83 27.849.487.372L8.216 26.2l-.719-.549-1.667 2.198z" style="fill:var(--color6, #a0616a)"/>
            <path fill="#2f2e41" d="M6.776 30.117c-.061.083-.17.108-.243.055l-.984-.715s.187-.459-.086-.913l-.433.536-.507-.369.714-.848s.213-.576.673-.616.207-.171.207-.171l.514-.472.701.647-.628.872-.257 1.132.349.666a.19.19 0 0 1-.021.197z" style="fill:var(--color5, #2f2e41)"/>
            <path fill="#2f2e41" d="M4.075 16.288c.037.151-.031.855.007 1.097.097.616.981 3.973.829 4.93-.559 3.507.214 5.757.214 5.757h1.247l.665-10.621.649.854 1.27 3.786-2.247 4.032 1.173.967 3.504-5.558-2.64-9.86-3.364-.094.187.28-.426.42-.003.003c-.066.091-1.523 2.138-1.066 4.006z" style="fill:var(--color5, #2f2e41)"/>
            <path fill="#a0616a" d="M5.141 12.282c.39.139 3.022-.005 3.756-.048l-.15-.561-3.364-.094.187.28-.426.42-.003.003z" style="fill:var(--color6, #a0616a)"/>
            <path fill="#f0af2e" d="m9.496 7.786-.121.642-.029.154-.644 1.32.085 1.935c.054.226-2.234-.287-3.423.243l-.925-4.416.938-2.035.734-.407.122-.488h1.556c.083.387-.007.578-.168.688l.39 1.037 1.486 1.328z" style="fill:var(--color4, #f0af2e)"/>
            <path fill="#a0616a" d="M10.712 4.003a.96.96 0 0 1-.151.426l-.083 1.594-.759-.062.166-1.611a.956.956 0 0 1-.05-.449c.044-.38.276-.665.518-.637s.403.358.359.738z" style="fill:var(--color6, #a0616a)"/>
            <path fill="#f0af2e" d="m7.687 5.678.099.241s-1.447-.145-1.416.609c.026.643 2.75 3.192 2.88 3.252a.644.644 0 0 0 .903-.478c.613-1.579.74-3.002.46-4.295h-.832l-.271 1.02-.015.776-.438.933-1.438-1.817.067-.241z" style="fill:var(--color4, #f0af2e)"/>
            <path fill="#a0616a" d="M2.866 14.539a.983.983 0 0 0 .043-.46l.607-1.516-.732-.267-.537 1.567a.986.986 0 0 0-.239.396c-.122.371-.029.735.208.813s.528-.161.65-.532z" style="fill:var(--color6, #a0616a)"/>
            <path fill="#f0af2e" d="M6.369 5.679s-.898-.34-1.408.075c-.21.171-1.14 1.351-1.284 2.94-.011.125-.096.232-.144.348-.295.718-.804 1.049-1.02 1.663-.084.24.07.861.017 1.068-.28 1.084-.179 1.703-.179 1.703l.755.251.409-.289.673-2.451 2.181-5.309z" style="fill:var(--color4, #f0af2e)"/>
            <path fill="#e6e6e6" d="M13.126 3.81h-2.804a.316.316 0 0 1-.316-.315 4.73 4.73 0 0 1 0-3.18c0-.174.142-.315.316-.315h2.804c.174 0 .316.141.316.315v3.18a.316.316 0 0 1-.316.315z" style="fill:var(--color1, #e6e6e6)"/>
            <path fill="#fff" d="M10.922.094a.821.821 0 0 0-.822.821v2.513c0 .159.13.289.289.289h1.551c.777 0 1.408-.629 1.408-1.404V.384a.29.29 0 0 0-.289-.289h-2.136z" style="fill:var(--color2, #fff)"/>
            <path fill="#e6e6e6" d="M12.377 1.018h-1.313c-.033 0-.06-.027-.06-.06s.027-.06.06-.06h1.313c.033 0 .06.027.06.06s-.027.06-.06.06zM12.377 2.295h-1.313c-.033 0-.06-.027-.06-.06s.027-.06.06-.06h1.313c.033 0 .06.027.06.06s-.027.06-.06.06zM13.081 1.657h-2.722c-.033 0-.06-.027-.06-.06s.027-.06.06-.06h2.722c.033 0 .06.027.06.06s-.027.06-.06.06zM13.113 2.814h-1.136c-.033 0-.06-.027-.06-.06s.027-.06.06-.06h1.136c.033 0 .06.027.06.06s-.027.06-.06.06z" style="fill:var(--color1, #e6e6e6)"/>
            <path fill="#f2f2f2" d="M13.933 30.438c.172.011.267-.202.137-.326l-.013-.051.005-.012a.507.507 0 0 1 .935.003c.153.367.348.736.395 1.124.021.171.012.346-.026.515a5.993 5.993 0 0 0 .511-3.137 6.058 6.058 0 0 0-1.289-3.094 1.617 1.617 0 0 1-.673-.697 1.22 1.22 0 0 1-.112-.336c.033.004.124-.494.099-.524.046-.069.127-.104.177-.171.248-.336.59-.277.768.179.381.192.385.51.151.816-.149.195-.169.458-.3.667l.041.051c.246.315.459.654.639 1.009a2.527 2.527 0 0 1 .152-1.179c.145-.35.418-.645.658-.947.288-.363.879-.205.93.256l.001.013a1.4 1.4 0 0 0-.105.064c-.195.128-.127.429.103.465l.005.001a2.584 2.584 0 0 1-.067.38c.308 1.188-.357 1.621-1.306 1.64l-.062.032a6.082 6.082 0 0 1 .332 2.533l.002-.011c.068-.349.258-.676.534-.902.411-.337.992-.461 1.436-.732.214-.13.487.038.45.285l-.002.012a1.712 1.712 0 0 0-.298.157c-.195.128-.127.429.103.465l.005.001.011.002a2.525 2.525 0 0 1-.469.733c-.192 1.037-1.019 1.135-1.903.834h-.001c-.097.42-.238.831-.419 1.222H13.97a3.16 3.16 0 0 0-.015-.05c.139.009.278 0 .415-.025l-.334-.41-.007-.008-.17-.208a2.46 2.46 0 0 1 .073-.634z" style="fill:var(--color7, #f2f2f2)"/>
            <path fill="#ccc" d="M0 31.901c0 .055.044.099.099.099h18.152c.055 0 .099-.044.099-.099s-.044-.099-.099-.099H.099a.099.099 0 0 0-.099.099z" style="fill:var(--color8, #ccc)"/>
            <path fill="#2f2e41" d="M7.333 1.853h-.242c-.709.001-1.921 1.002-1.452 1.704-.401 1.066-.415 1.621-.245 1.911a.326.326 0 0 0 .311.147c.016-.001.033-.002.05-.001.12.004.281.566.392.609l.296-.09.486-.484-.247-.739-.477-.372.065-.862c-.319-.732.028-.768.224-1.004l.02.758.28-.27c.228.006.495.105.672-.101.322-.376.655.078 1.035.17l.118-.093a1.793 1.793 0 0 0-.088-.598c-.029-.086-.102-.157-.105-.242-.012-.321-.619-.632-1.092-.442z" style="fill:var(--color5, #2f2e41)"/>
        </symbol>
        <symbol id="icon-3" viewBox="0 0 25 32">
            <path fill="#f0af2e" d="M12.023 32c-2.191 0-4.368-.285-6.529-.854-2.161-.599-3.993-1.438-5.494-2.517l2.837-5.573c1.201.869 2.597 1.558 4.188 2.067s3.197.764 4.818.764c1.831 0 3.272-.36 4.323-1.079s1.576-1.708 1.576-2.966c0-1.198-.465-2.142-1.396-2.831s-2.432-1.034-4.503-1.034H8.511v-4.809l8.781-9.933.811 2.607H1.577V-.001h22.064v4.719l-8.736 9.933-3.692-2.112h2.116c3.872 0 6.799.869 8.781 2.607s2.972 3.97 2.972 6.697c0 1.768-.465 3.431-1.396 4.989-.931 1.528-2.357 2.771-4.278 3.73S15.025 32 12.023 32z"/>
        </symbol>
        <symbol id="icon-2" viewBox="0 0 21 32">
            <path fill="#f0af2e" d="M1.182 32v-4.719l9.976-11.461c.788-.869 1.367-1.648 1.736-2.337s.616-1.318.739-1.888a6.287 6.287 0 0 0 .222-1.573c0-1.258-.357-2.217-1.071-2.876-.69-.689-1.712-1.034-3.067-1.034a6.244 6.244 0 0 0-3.03.764C5.776 7.385 5 8.179 4.359 9.258l-4.36-3.416c.985-1.798 2.365-3.221 4.138-4.27S7.955-.001 10.27-.001c1.921 0 3.596.39 5.025 1.169 1.453.749 2.574 1.813 3.362 3.191.813 1.378 1.219 3.026 1.219 4.944 0 1.019-.111 2.037-.332 3.056-.197.989-.616 2.037-1.256 3.146-.616 1.109-1.527 2.352-2.734 3.73l-8.276 9.483-1.145-2.652h14.594v5.933H1.182z"/>
        </symbol>
        <symbol id="icon-1" viewBox="0 0 14 32">
            <path fill="#f0af2e" d="M6.504 32V2.743l3.252 3.2H-.001V0H14.03v32H6.504z" style="fill:var(--color4, #f0af2e)"/>
        </symbol>
        <symbol id="icon-girl-phone" viewBox="0 0 38 32">
            <path fill="#2f2e43" d="M21.822 31.83H11.096c-1.398 0-2.534-1.105-2.534-2.464V2.464C8.562 1.105 9.699 0 11.096 0h10.726c1.397 0 2.534 1.105 2.534 2.464v26.902c0 1.359-1.137 2.464-2.534 2.464z" style="fill:var(--color1, #2f2e43)"/>
            <path fill="#fff" d="M21.833 31.165H11.086c-1.049 0-1.902-.83-1.902-1.849V2.363c0-1.019.853-1.849 1.902-1.849h10.747c1.049 0 1.902.83 1.902 1.849v26.953c0 1.019-.853 1.849-1.902 1.849z" style="fill:var(--color2, #fff)"/>
            <path fill="#2f2e43" d="M18.138 2.267h-3.42c-.394 0-.715-.312-.715-.695s.321-.695.715-.695h3.42c.394 0 .715.312.715.695s-.321.695-.715.695zM18.741 13.388l-1.063-.804s-1.213.368-1.244.383-1.883 4.189-1.883 4.189 4.742 2.359 4.395 2.13c-.347-.23-.275-3.339.047-3.745.324-.406.047-1.425.047-1.425l-.299-.727h-.002l.001-.001z" style="fill:var(--color1, #2f2e43)"/>
            <path fill="#f3a3a6" d="M15.802 15.269h1.442v2.223l-1.589-.508.148-1.716z" style="fill:var(--color3, #f3a3a6)"/>
            <path fill="#f0af2e" d="M18.937 20.535a6.266 6.266 0 0 1-2.335.449 6.281 6.281 0 0 1-2.569-.549l.092-.437.243-1.158.285-1.353.053-.255.126-.6.002-.007h2.883l.002.005.768 2.458.321 1.03.13.418v-.001z" style="fill:var(--color4, #f0af2e)"/>
            <path fill="#f0af2e" d="M19.92 20.035a6.185 6.185 0 0 1-1.636.721l-.105-.423-.392-1.582-.528-2.126h.001l.137-.001c.081 0 .191.001.32.005.308.011.715.041 1.034.122.246.062.439.153.494.288s.282 1.156.577 2.538l.098.458z" style="fill:var(--color4, #f0af2e)"/>
            <path fill="#f3a3a6" d="M17.046 15.883c.874 0 1.583-.689 1.583-1.539s-.709-1.539-1.583-1.539-1.583.689-1.583 1.539.709 1.539 1.583 1.539z" style="fill:var(--color3, #f3a3a6)"/>
            <path fill="#2f2e43" d="M19.019 14.062v.002l-.388.065a3.069 3.069 0 0 0-.069-.231 2.276 2.276 0 0 0-.094-.232 1.17 1.17 0 0 0-.276-.384c-.364-.321-.768-.108-.821-.118-.071-.014-1.022.989-1.143 2.105a2.132 2.132 0 0 0-.007.375l.001.014c.025.381-.112.699-.314.958l-.007.008a2.159 2.159 0 0 1-.235.251 3.2 3.2 0 0 1-.714.479 3.017 3.017 0 0 1-.306.134s-.257.47-.278 1.351c-.008.369.025.81.136 1.32.023.106.049.214.079.326.017.062.032.123.045.182a6.11 6.11 0 0 1-1.439-.694c.067-.156.132-.292.189-.4.039-.073.073-.133.101-.176.347-.536.11-1.47.11-1.47-.535-.459.094-1.47.094-1.47s-.111-1.348.221-1.608c.331-.26.347-.904.347-.904.584-2.466 2.49-1.991 2.49-1.991 2.399-.256 2.284 2.027 2.279 2.108v.002z" style="fill:var(--color1, #2f2e43)"/>
            <path fill="#f0af2e" d="m16.092 16.634-.106.456-.163.697-.703 3.021a6.11 6.11 0 0 1-1.539-.599l.095-.449c.327-1.544.587-2.717.646-2.86.056-.136.234-.215.458-.258l.051-.009.049-.007c.264-.038.569-.035.808-.023.083.004.157.01.219.014l.092.008.094.01h-.001z" style="fill:var(--color4, #f0af2e)"/>
            <path fill="#2f2e43" d="M16.602 21.09a6.4 6.4 0 0 1-2.617-.559 6.144 6.144 0 0 1-.859-.47c-1.739-1.134-2.777-3.022-2.777-5.05 0-3.352 2.805-6.079 6.253-6.079s6.253 2.727 6.253 6.079c0 2.074-1.075 3.985-2.875 5.113a6.278 6.278 0 0 1-1.665.734 6.394 6.394 0 0 1-1.713.232zm0-11.944c-3.326 0-6.033 2.631-6.033 5.865 0 1.957 1.002 3.778 2.68 4.873a5.939 5.939 0 0 0 .828.453 5.918 5.918 0 0 0 1.07.367 6.168 6.168 0 0 0 3.107-.051 6.113 6.113 0 0 0 1.606-.708c1.737-1.088 2.774-2.932 2.774-4.933 0-3.234-2.706-5.865-6.033-5.865zM0 31.909c0 .05.059.091.133.091h38.04c.073 0 .133-.04.133-.091s-.059-.09-.133-.09H.133c-.073 0-.133.04-.133.09z" style="fill:var(--color1, #2f2e43)"/>
            <path fill="#f3a3a6" d="M23.958 17.202c.117-.112.262-.195.422-.241l1.163-1.232.613.571-1.246 1.189a.96.96 0 0 1-.265.397c-.298.277-.693.348-.883.159s-.103-.567.195-.843h.001z" style="fill:var(--color3, #f3a3a6)"/>
            <path fill="#d5d5d6" d="m24.442 16.647.617.755 3.191-2.349.003-.005 1.865-3.384a1.142 1.142 0 0 0-.368-1.5c-.303-.206-.68-.264-1.034-.158s-.632.359-.765.695l-1.21 3.079-2.299 2.866z" style="fill:var(--color5, #d5d5d6)"/>
            <path fill="#f3a3a6" d="M29.698 8.821h-1.301v2.007l1.434-.458-.134-1.548z" style="fill:var(--color3, #f3a3a6)"/>
            <path fill="#f3a3a6" d="M27.145 7.987c0 .768.639 1.389 1.429 1.389s1.429-.622 1.429-1.389c0-.768-.64-1.389-1.429-1.389s-1.429.622-1.429 1.389z" style="fill:var(--color3, #f3a3a6)"/>
            <path fill="#2f2e43" d="m29.585 8.875.14.257.615-1.137c.37-1.103-.923-1.737-.923-1.737-.422-.483-1.271.082-1.271.082-1.224-.264-.633.739-.633.739s.417.009.417.337c0 .329.455.306.455.306l.356.606.197-.233c.732-.301.647.779.647.779z" style="fill:var(--color1, #2f2e43)"/>
            <path fill="#f3a3a6" d="M30.225 29.382h-1.154v1.592h1.154v-1.592z" style="fill:var(--color3, #f3a3a6)"/>
            <path fill="#2f2e43" d="M27.946 31.938c.507 0 1.246-.051 1.252-.052.198.017 1.186.093 1.235-.127a.912.912 0 0 0-.031-.442c-.095-.918-.131-.929-.152-.935-.034-.01-.132.036-.291.136l-.01.006-.002.011c-.003.014-.073.351-.408.3-.229-.035-.304-.085-.328-.109a.15.15 0 0 0 .061-.049c.025-.038.029-.086.013-.144-.043-.152-.172-.378-.177-.387l-.015-.026-1.312.861-.81.225a.2.2 0 0 0-.082.346c.147.129.44.349.746.376.081.008.19.01.311.01h.001z" style="fill:var(--color1, #2f2e43)"/>
            <path fill="#f3a3a6" d="m32.669 26.995-.89.715 1.044 1.227.889-.715-1.044-1.227z" style="fill:var(--color3, #f3a3a6)"/>
            <path fill="#2f2e43" d="M32.59 30.375c.39-.314.927-.812.931-.816.164-.109.975-.663.868-.863a.958.958 0 0 0-.314-.322c-.675-.649-.709-.635-.729-.627-.033.013-.078.109-.136.285l-.003.011.006.01c.008.013.174.317-.117.484-.2.115-.29.123-.324.119a.137.137 0 0 0 .014-.076c-.006-.044-.034-.084-.084-.119-.134-.09-.381-.185-.391-.189l-.028-.011-.447 1.476-.477.676a.2.2 0 0 0-.028.174c.026.083.103.14.191.144.197.008.567-.004.821-.173a4.04 4.04 0 0 0 .246-.185zM27.162 17.103l1.76 12.725h1.32l.88-12.725h-3.959z" style="fill:var(--color1, #2f2e43)"/>
            <path fill="#2f2e43" d="m30.571 24.054 2.628 3.315-1.125.903-4.51-4.17-.403-6.999.806.701 2.603 6.25z" style="fill:var(--color1, #2f2e43)"/>
            <path fill="#d5d5d6" d="m27.968 9.617-.806 7.486h3.96l.307-2.43a6.854 6.854 0 0 0-.897-4.333l-.608-1.032-1.955.309z" style="fill:var(--color5, #d5d5d6)"/>
            <path fill="#f3a3a6" d="M27.613 19.23a.98.98 0 0 1 .281-.389l.532-1.591.802.273-.626 1.584a.938.938 0 0 1-.071.468c-.153.372-.482.596-.735.501s-.335-.474-.182-.846h-.001z" style="fill:var(--color3, #f3a3a6)"/>
            <path fill="#d5d5d6" d="m27.819 18.526.884.437 1.901-3.424v-.006l.253-3.831a1.168 1.168 0 0 0-.975-1.216 1.209 1.209 0 0 0-1.008.274 1.14 1.14 0 0 0-.399.942l.213 3.289-.869 3.534z" style="fill:var(--color5, #d5d5d6)"/>
        </symbol>
        <symbol id="icon-zoom" viewBox="0 0 107 32">
            <path fill="#f0af2e" d="M25.237 26.677H7.988a2.98 2.98 0 0 1-2.759-1.846 2.986 2.986 0 0 1 .643-3.258L17.826 9.588H9.262c-1.13 0-2.214-.45-3.014-1.252S5 6.448 5 5.315h15.91c1.21 0 2.292.726 2.758 1.846a2.993 2.993 0 0 1-.648 3.257L11.07 22.407h9.907a4.27 4.27 0 0 1 4.262 4.273l-.004-.004zM101.5 13.33c-.004-1.683-.517-3.325-1.471-4.711a8.314 8.314 0 0 0-8.784-3.373 8.31 8.31 0 0 0-4.233 2.52c-.778-.871-1.73-1.567-2.793-2.044S82.002 4.999 80.837 5c-4.584 0-8.307 3.733-8.307 8.328v13.347c1.13 0 2.215-.45 3.013-1.252s1.249-1.888 1.249-3.021v-9.074c0-1.076.427-2.108 1.186-2.869a4.04 4.04 0 0 1 5.724 0 4.062 4.062 0 0 1 1.186 2.869v9.074a4.265 4.265 0 0 0 4.262 4.273V13.328c0-1.075.426-2.107 1.184-2.868a4.037 4.037 0 0 1 5.721 0 4.06 4.06 0 0 1 1.185 2.868v9.074a4.267 4.267 0 0 0 4.262 4.273V13.328zm-31.101 2.669c0 1.444-.284 2.875-.835 4.209a10.99 10.99 0 0 1-5.937 5.952 10.962 10.962 0 0 1-8.398 0 10.99 10.99 0 0 1-5.937-5.952A11.013 11.013 0 0 1 51.67 8.222C53.727 6.16 56.518 5 59.428 5s5.7 1.159 7.758 3.222a11.01 11.01 0 0 1 3.213 7.777zm-4.262 0c0-1.784-.707-3.496-1.966-4.757s-2.965-1.971-4.745-1.971c-1.78 0-3.486.709-4.745 1.971a6.735 6.735 0 0 0 0 9.514 6.704 6.704 0 0 0 4.745 1.971c1.78 0 3.486-.709 4.745-1.971s1.966-2.973 1.966-4.757zm-19.381 0c0 2.918-1.156 5.716-3.214 7.779S38.693 27 35.783 27s-5.701-1.159-7.759-3.222c-2.058-2.063-3.214-4.861-3.214-7.779s1.156-5.715 3.213-7.777C30.08 6.159 32.871 5 35.781 5s5.7 1.159 7.758 3.222a11.014 11.014 0 0 1 3.213 7.777h.004zm-4.262 0a6.75 6.75 0 0 0-1.966-4.758 6.702 6.702 0 0 0-10.945 2.183 6.747 6.747 0 0 0 1.454 7.332 6.7 6.7 0 0 0 9.49 0 6.739 6.739 0 0 0 1.965-4.757z" style="fill:var(--color4, #f0af2e)"/>
        </symbol>
        <symbol id="icon-women" viewBox="0 0 47 32">
            <path fill="#f2f2f2" d="M46.36 29.1c-.323 1.111-1.266 1.889-2.25 2.55-.137.092-.275.182-.412.27l-.003.002-.019.013-.085.054.015.007s.015.008-.001.001l-.015-.006c-.571-.229-1.153-.474-1.591-.902-.454-.445-.72-1.142-.474-1.726a1.078 1.078 0 0 1 .186-.299c.136-.164.313-.29.514-.363s.418-.093.629-.056a1.205 1.205 0 0 1 .928.783c.072-.667-.483-1.226-1.017-1.639s-1.141-.861-1.244-1.525c-.058-.369.072-.727.308-1.014l.022-.026a1.766 1.766 0 0 1 1.131-.602c.819-.084 1.615.346 2.21.911.958.909 1.537 2.305 1.17 3.568z" style="fill:var(--color6, #f2f2f2)"/>
            <path fill="#fff" d="M44.821 27.646c.157.243.278.507.358.784.068.248.098.504.09.761a3.275 3.275 0 0 1-.436 1.502c-.199.348-.442.67-.722.958-.137.092-.275.182-.412.27l-.003.002-.019.013-.085.054s.031.015.014.008l-.015-.006a2.61 2.61 0 0 0-1.943-2.845 1.21 1.21 0 0 1 .064-.082c.157.044.31.101.457.172a2.698 2.698 0 0 1 1.528 2.682l.07-.064c.434-.402.82-.863 1.081-1.395a3.05 3.05 0 0 0 .324-1.453c-.021-.549-.242-1.057-.561-1.499a6.46 6.46 0 0 0-1.228-1.255 7.418 7.418 0 0 0-1.527-.935c-.012-.006-.022-.016-.027-.028a.053.053 0 0 1 .022-.065c.005-.002.011-.004.017-.003s.012.002.017.005l.201.094a7.463 7.463 0 0 1 1.538 1.006c.453.383.879.82 1.197 1.321z" style="fill:var(--color2, #fff)"/>
            <path fill="#3f3d56" d="M39.361 0H.558a.559.559 0 0 0-.557.553v26.082a.553.553 0 0 0 .557.553h38.803a.557.557 0 0 0 .424-.194l.012-.015a.54.54 0 0 0 .122-.344V.553A.559.559 0 0 0 39.361 0zm.399 26.635a.39.39 0 0 1-.217.351.397.397 0 0 1-.182.044H.558a.397.397 0 0 1-.398-.395V.553A.4.4 0 0 1 .558.158h38.803c.106 0 .207.042.282.116s.117.175.117.279v26.082z" style="fill:var(--color7, #3f3d56)"/>
            <path fill="#3f3d56" d="M39.839 2.216H.079v.158h39.76v-.158zM1.434 1.66c.264 0 .478-.212.478-.474S1.698.712 1.434.712s-.478.212-.478.474.214.474.478.474zM2.808 1.66c.264 0 .478-.212.478-.474S3.072.712 2.808.712s-.478.212-.478.474.214.474.478.474zM4.183 1.66c.264 0 .478-.212.478-.474S4.447.712 4.183.712s-.478.212-.478.474.214.474.478.474z" style="fill:var(--color7, #3f3d56)"/>
            <path fill="#f0af2e" d="M25.75 11.12a1.292 1.292 0 0 1-1.191-.79 1.264 1.264 0 0 1-.073-.739 1.282 1.282 0 0 1 1.013-1.005 1.3 1.3 0 0 1 1.324.544 1.27 1.27 0 0 1-.161 1.615c-.242.24-.57.375-.912.375zm0-2.438a1.174 1.174 0 0 0-1.078.715c-.088.212-.112.444-.066.669a1.162 1.162 0 0 0 .917.91 1.168 1.168 0 0 0 1.395-1.136c0-.307-.124-.601-.342-.818s-.516-.339-.825-.34z" style="fill:var(--color4, #f0af2e)"/>
            <path fill="#f0af2e" d="M25.629 10.305a.131.131 0 0 1-.077-.025l-.001-.001-.289-.219a.126.126 0 0 1 .061-.227.133.133 0 0 1 .095.025l.187.142.442-.572c.01-.013.023-.024.038-.033s.031-.014.047-.016c.017-.002.034-.001.05.003s.031.012.045.022l-.003.004.003-.004a.126.126 0 0 1 .024.178l-.52.672c-.012.015-.028.028-.045.037s-.037.013-.057.013z" style="fill:var(--color4, #f0af2e)"/>
            <path fill="#e6e6e6" d="M29.441 11.12a1.298 1.298 0 0 1-1.192-.79c-.098-.234-.123-.491-.073-.739a1.282 1.282 0 0 1 1.013-1.005 1.301 1.301 0 0 1 1.324.544 1.27 1.27 0 0 1-.161 1.615c-.242.24-.569.375-.911.375zm0-2.438c-.231 0-.457.068-.649.195a1.155 1.155 0 0 0 .421 2.099 1.172 1.172 0 0 0 1.199-.493 1.151 1.151 0 0 0-.145-1.461 1.178 1.178 0 0 0-.825-.34z" style="fill:var(--color8, #e6e6e6)"/>
            <path fill="#e6e6e6" d="M29.905 10.283c-.016.015-.037.024-.059.024s-.043-.009-.058-.024l-.309-.307a.036.036 0 0 0-.052 0l-.31.307a.083.083 0 0 1-.116 0 .083.083 0 0 1 0-.116l.309-.307a.036.036 0 0 0 0-.052l-.309-.307a.083.083 0 0 1 .058-.14c.022 0 .043.009.058.024l.31.307a.036.036 0 0 0 .052 0l.309-.307c.016-.015.036-.024.058-.024s.043.009.059.024a.083.083 0 0 1 0 .116l-.309.307a.036.036 0 0 0 0 .052l.31.307a.083.083 0 0 1 0 .116z" style="fill:var(--color8, #e6e6e6)"/>
            <path fill="#f0af2e" d="M25.75 15.181a1.292 1.292 0 0 1-1.191-.79 1.264 1.264 0 0 1-.073-.739 1.282 1.282 0 0 1 1.013-1.005 1.3 1.3 0 0 1 1.324.544 1.27 1.27 0 0 1-.161 1.615c-.242.24-.57.375-.912.375zm0-2.437a1.174 1.174 0 0 0-1.078.715c-.088.212-.112.444-.066.669a1.162 1.162 0 0 0 .917.91 1.168 1.168 0 0 0 1.395-1.136c0-.307-.124-.601-.342-.818s-.516-.339-.825-.34z" style="fill:var(--color4, #f0af2e)"/>
            <path fill="#f0af2e" d="M25.629 14.367a.131.131 0 0 1-.077-.025l-.001-.001-.289-.219a.126.126 0 0 1 .061-.227.133.133 0 0 1 .095.025l.187.142.442-.572c.01-.013.023-.024.038-.033s.031-.014.047-.016c.017-.002.034-.001.05.003s.031.012.045.022l-.003.004.003-.004a.126.126 0 0 1 .024.178l-.52.672c-.012.015-.028.028-.045.037s-.037.013-.057.013z" style="fill:var(--color4, #f0af2e)"/>
            <path fill="#e6e6e6" d="M29.441 15.181a1.298 1.298 0 0 1-1.192-.79c-.098-.234-.123-.491-.073-.739a1.282 1.282 0 0 1 1.013-1.005 1.301 1.301 0 0 1 1.324.544 1.27 1.27 0 0 1-.161 1.615c-.242.24-.569.375-.911.375zm0-2.437c-.231 0-.457.068-.649.195a1.155 1.155 0 0 0 .421 2.099 1.172 1.172 0 0 0 1.199-.493 1.151 1.151 0 0 0-.145-1.461 1.178 1.178 0 0 0-.825-.34z" style="fill:var(--color8, #e6e6e6)"/>
            <path fill="#e6e6e6" d="M29.905 14.344c-.016.015-.037.024-.059.024s-.043-.009-.058-.024l-.309-.307a.036.036 0 0 0-.052 0l-.31.307a.083.083 0 0 1-.116 0 .083.083 0 0 1 0-.116l.309-.307a.036.036 0 0 0 0-.052l-.309-.307a.083.083 0 0 1 .058-.14c.022 0 .043.009.058.024l.31.307a.036.036 0 0 0 .052 0l.309-.307c.016-.015.036-.024.058-.024a.083.083 0 0 1 .082.082.083.083 0 0 1-.024.058l-.309.307a.036.036 0 0 0 0 .052l.31.307a.083.083 0 0 1 0 .116zM25.75 19.242c-.255 0-.504-.075-.716-.215a1.28 1.28 0 0 1-.548-1.313 1.282 1.282 0 0 1 1.013-1.005 1.3 1.3 0 0 1 1.324.544 1.27 1.27 0 0 1-.161 1.615c-.242.24-.57.375-.912.375zm0-2.437a1.174 1.174 0 0 0-1.078.715c-.088.212-.112.445-.066.669a1.166 1.166 0 0 0 1.591.844 1.166 1.166 0 0 0 .721-1.07c0-.307-.124-.601-.342-.818s-.516-.339-.825-.34z" style="fill:var(--color8, #e6e6e6)"/>
            <path fill="#e6e6e6" d="M25.629 18.428a.131.131 0 0 1-.077-.025l-.001-.001-.289-.219c-.027-.02-.045-.051-.049-.084s.005-.067.025-.094a.129.129 0 0 1 .18-.024l.187.142.442-.572c.01-.013.023-.024.038-.033s.031-.014.047-.016c.017-.002.034-.001.05.003s.031.012.045.022l-.003.004.003-.004a.126.126 0 0 1 .024.178l-.52.672c-.012.016-.028.028-.045.037s-.037.013-.057.013zM29.441 19.242c-.255 0-.504-.075-.717-.215a1.274 1.274 0 0 1-.195-1.968 1.301 1.301 0 0 1 1.984.194 1.27 1.27 0 0 1-.161 1.615c-.242.24-.569.375-.911.375zm0-2.437c-.231 0-.457.068-.649.195a1.155 1.155 0 0 0 .421 2.099 1.172 1.172 0 0 0 1.199-.493 1.151 1.151 0 0 0-.145-1.461 1.178 1.178 0 0 0-.825-.34z" style="fill:var(--color8, #e6e6e6)"/>
            <path fill="#e6e6e6" d="M29.905 18.406c-.016.015-.037.024-.059.024s-.043-.009-.058-.024l-.309-.307a.036.036 0 0 0-.052 0l-.31.307a.083.083 0 0 1-.116 0c-.016-.015-.024-.036-.024-.058s.009-.042.024-.058l.309-.307a.036.036 0 0 0 0-.052l-.309-.307a.083.083 0 0 1 .058-.14c.022 0 .043.009.058.024l.31.307a.036.036 0 0 0 .052 0l.309-.307c.016-.015.036-.024.058-.024a.083.083 0 0 1 .082.082.083.083 0 0 1-.024.058l-.309.307a.036.036 0 0 0 0 .052l.31.307a.083.083 0 0 1 0 .116z" style="fill:var(--color8, #e6e6e6)"/>
            <path fill="#3f3d56" d="M47.14 31.981H22.784c-.017 0-.033-.007-.045-.019s-.019-.028-.019-.045c0-.017.007-.033.019-.045s.028-.019.045-.019H47.14c.017 0 .033.007.045.019s.019.028.019.045c0 .017-.007.033-.019.045s-.028.019-.045.019z" style="fill:var(--color7, #3f3d56)"/>
            <path fill="#ffb8b8" d="M26.252 14.676a.645.645 0 0 0 .933-.317l2.283.075-.62-1.004-2.073.082a.646.646 0 0 0-.808.806.64.64 0 0 0 .285.357zM39.125 19.581a.634.634 0 0 0-.151-.966l.475-2.217-1.105.43-.281 2.039a.642.642 0 0 0 .659.93.642.642 0 0 0 .404-.216zM33.777 31.133h-.784l-.373-2.998h1.157v2.999z" style="fill:var(--color9, #ffb8b8)"/>
            <path fill="#2f2e41" d="M33.977 31.886H31.45v-.032a.956.956 0 0 1 .288-.689.975.975 0 0 1 .695-.285h1.543v1.007z" style="fill:var(--color10, #2f2e41)"/>
            <path fill="#ffb8b8" d="M37.612 31.133h-.784l-.373-2.998h1.157v2.999z" style="fill:var(--color9, #ffb8b8)"/>
            <path fill="#2f2e41" d="M37.812 31.886h-2.527v-.032a.956.956 0 0 1 .288-.689.975.975 0 0 1 .695-.285h1.543v1.007zM33.858 29.567l-1.109-.044c-.076-.003-.147-.036-.199-.091s-.079-.128-.077-.203l.313-10.17.02-.007c1.944-.698 3.553-.645 4.918.161l.015.009.187 9.905a.28.28 0 0 1-.176.268.3.3 0 0 1-.111.022h-.935a.29.29 0 0 1-.283-.23l-1.274-6.43a.095.095 0 0 0-.098-.076.1.1 0 0 0-.062.025.094.094 0 0 0-.03.059l-.801 6.552a.29.29 0 0 1-.285.251h-.011z" style="fill:var(--color10, #2f2e41)"/>
            <path fill="#ffb8b8" d="M34.938 10.141c.867 0 1.57-.697 1.57-1.557s-.703-1.557-1.57-1.557c-.867 0-1.57.697-1.57 1.557s.703 1.557 1.57 1.557z" style="fill:var(--color9, #ffb8b8)"/>
            <path fill="#ccc" d="M27.556 14.308a.29.29 0 0 1 0-.17l.163-.517a.287.287 0 0 1 .262-.2l2.06-.09 3.342-1.699a.932.932 0 0 1 1.166.597.898.898 0 0 1-.061.702.915.915 0 0 1-.543.453l-2.048 1.178a2.985 2.985 0 0 1-2.058.342l-2.063-.401a.291.291 0 0 1-.191-.134.237.237 0 0 1-.027-.061zM39.058 18.146a.288.288 0 0 1-.172.007l-.528-.139a.286.286 0 0 1-.212-.251l-.179-2.038-1.854-3.24a.912.912 0 0 1 .243-.994.94.94 0 0 1 .666-.242.938.938 0 0 1 .644.297.925.925 0 0 1 .188.307l1.274 1.979c.387.601.54 1.32.432 2.025l-.316 2.061c-.006.04-.02.078-.042.111a.305.305 0 0 1-.144.114z" style="fill:var(--color11, #ccc)"/>
            <path fill="#ccc" d="M33.22 11.349a2.683 2.683 0 0 1 2.144-.86l.078.005c.379.03.746.139 1.079.321s.622.432.849.734a2.676 2.676 0 0 1 .481 2.165 8.342 8.342 0 0 0 .223 4.304l.421 1.297a.279.279 0 0 1-.037.249.286.286 0 0 1-.221.123l-2.153.115-.551-.944v.974l-2.617.14-.016.001a.282.282 0 0 1-.211-.092.284.284 0 0 1-.075-.216l.296-3.639-.371-2.471a2.648 2.648 0 0 1 .681-2.206z" style="fill:var(--color11, #ccc)"/>
            <path fill="#2f2e41" d="M36.029 10.07c-.145.083-.72.138-.761-.023l-.001-.004c-.028-.118-.005-.242.003-.363s-.004-.254-.087-.344c-.155-.166-.431-.078-.656-.12a.552.552 0 0 1-.417-.663.424.424 0 0 0-.443-.513c-.227.013-.471.081-.659-.086-.145-.129-.181-.464-.117-.647.107-.307.793-.467 1.093-.556a2.619 2.619 0 0 1 2.201.358c.189.132.366.299.447.514s.042.487-.14.629a1.16 1.16 0 0 1 .272 1.13c-.09.287-.519.563-.735.686z" style="fill:var(--color10, #2f2e41)"/>
            <path fill="#f0af2e" d="M14.359 10.15H4.306a.487.487 0 0 1-.488-.485.49.49 0 0 1 .488-.485h10.053a.487.487 0 0 1 .488.485.49.49 0 0 1-.488.485z" style="fill:var(--color4, #f0af2e)"/>
            <path fill="#3f3d56" d="M20.566 10.564H3.306c-.017 0-.033-.007-.045-.019s-.019-.028-.019-.045c0-.017.007-.033.019-.045s.028-.019.045-.019h17.26c.017 0 .033.007.045.019s.019.028.019.045c0 .017-.007.033-.019.045s-.028.019-.045.019z" style="fill:var(--color7, #3f3d56)"/>
            <path fill="#f0af2e" d="M14.359 14.212H4.306c-.13 0-.254-.051-.346-.142a.481.481 0 0 1 0-.686.491.491 0 0 1 .346-.142h10.053a.487.487 0 0 1 .488.485.49.49 0 0 1-.488.485z" style="fill:var(--color4, #f0af2e)"/>
            <path fill="#3f3d56" d="M20.566 14.625H3.306c-.017 0-.033-.007-.045-.019s-.019-.028-.019-.045c0-.017.007-.033.019-.045s.028-.019.045-.019h17.26c.017 0 .033.007.045.019s.019.028.019.045c0 .017-.007.033-.019.045s-.028.019-.045.019z" style="fill:var(--color7, #3f3d56)"/>
            <path fill="#f2f2f2" d="M14.359 18.273H4.306c-.13 0-.254-.051-.346-.142a.481.481 0 0 1 0-.686.491.491 0 0 1 .346-.142h10.053a.487.487 0 0 1 .488.485.49.49 0 0 1-.488.485z" style="fill:var(--color6, #f2f2f2)"/>
            <path fill="#3f3d56" d="M20.566 18.687H3.306c-.017 0-.033-.007-.045-.019s-.019-.028-.019-.045c0-.017.007-.033.019-.045s.028-.019.045-.019h17.26c.017 0 .033.007.045.019s.019.028.019.045c0 .017-.007.033-.019.045s-.028.019-.045.019z" style="fill:var(--color7, #3f3d56)"/>
        </symbol>
        <symbol id="icon-hand-girl" viewBox="0 0 44 32">
            <path fill="#f2f2f2" d="m19.321 28.215.067-1.513c.7-.375 1.48-.573 2.273-.577-1.092.895-.955 2.62-1.695 3.824a2.926 2.926 0 0 1-2.15 1.359l-.914.561a4.943 4.943 0 0 1 1.035-3.992c.256-.306.548-.579.872-.812.219.579.511 1.151.511 1.151z" style="fill:var(--color6, #f2f2f2)"/>
            <path fill="#e6e6e6" d="M25.128 7.164c.024.344.125.678.296.977.359.633.976 1.091 1.64 1.364.829.34 1.754.351 2.635.275.818-.07 1.627-.234 2.448-.268.635-.02 1.27-.005 1.903.046 1.228.087 2.451.25 3.666.446a47.103 47.103 0 0 1 1.077.186c.006.002.015.001.021.004.01.006-.04-.016-.01.009.042.044.08.093.112.145l.449.579c.129.166.248.368.414.499a.745.745 0 0 0 .831.058.83.83 0 0 0 .309-.352c.103-.19.226-.368.367-.532.534-.624 1.276-1.009 1.896-1.534.301-.244.557-.538.759-.869.172-.3.279-.632.313-.976.074-.698-.139-1.411-.499-2.005a4.001 4.001 0 0 0-1.621-1.488c-.751-.384-1.582-.571-2.415-.664-.885-.099-1.779-.099-2.668-.089a45.115 45.115 0 0 0-5.961.461c-.947.137-1.907.279-2.834.521-.819.213-1.636.547-2.248 1.152-.544.538-.922 1.273-.879 2.054z" style="fill:var(--color8, #e6e6e6)"/>
            <path fill="#fff" d="M29.457 4.357c-.885.164-1.81.364-2.552.849-.734.48-1.18 1.234-1.137 1.922.064 1.005 1.129 1.756 2.099 1.953.929.188 1.897.061 2.922-.074.227-.03.461-.061.693-.088 2.523-.292 7.26.608 7.46.647l.208.04 1.103 1.423c.251-.56.687-1.059 1.151-1.43.212-.17.433-.328.647-.48.546-.389 1.062-.757 1.346-1.262.62-1.1-.113-2.635-1.158-3.323-1.178-.776-2.729-.898-4.231-.914-.157-.002-.313-.002-.47-.002-2.711 0-5.416.248-8.083.741z" style="fill:var(--color2, #fff)"/>
            <path fill="#e6e6e6" d="M28.752 5.573a.228.228 0 0 1 .068-.164c.022-.022.047-.039.075-.05s.058-.018.089-.018h10.648a.232.232 0 1 1 0 .464H28.984c-.061 0-.12-.025-.164-.068s-.068-.102-.068-.164zM28.752 6.999a.228.228 0 0 1 .068-.164c.022-.022.047-.039.075-.05s.058-.018.089-.018h10.649a.228.228 0 0 1 .164.068c.022.022.039.047.05.075s.018.058.018.089a.228.228 0 0 1-.068.164.224.224 0 0 1-.075.05.225.225 0 0 1-.089.018H28.985c-.061 0-.12-.025-.164-.068s-.068-.102-.068-.164zM38.159 8.425a.228.228 0 0 1 .068-.164c.022-.022.047-.039.075-.05s.058-.018.089-.018h1.241a.232.232 0 1 1 0 .464h-1.241c-.061 0-.12-.025-.164-.068s-.068-.102-.068-.164z" style="fill:var(--color8, #e6e6e6)"/>
            <path fill="#2f2e41" d="M14.87 4.441a1.808 1.808 0 0 0-1.225-1.044c-.6-.157-1.479.082-1.93.424-.825.626-1.027 2.778-.46 3.457.113-.005.502-.008.616-.011l.162-.41v.406a72.033 72.033 0 0 1 2.747.006c.083-.481.281-2.365.091-2.828z" style="fill:var(--color10, #2f2e41)"/>
            <path fill="#9e616a" d="M14.718 30.383h.813l.387-3.143h-1.199v3.143zM7.604 29.876l.786.205 1.165-2.944-1.161-.303-.79 3.041z" style="fill:var(--color12, #9e616a)"/>
            <path fill="#ffb6b6" d="m12.083 11.079-.184.48.037.48 3.604 1.252-.179-2.101-.405-.48-2.873.369z" style="fill:var(--color13, #ffb6b6)"/>
            <path fill="#9e616a" d="M13.629 6.759c.711 0 1.287-.578 1.287-1.291s-.576-1.291-1.287-1.291-1.287.578-1.287 1.291.576 1.291 1.287 1.291z" style="fill:var(--color12, #9e616a)"/>
            <path fill="#2f2e41" d="M14.513 3.788a1.617 1.617 0 0 0-1.646-.022 1.624 1.624 0 0 0-.812 1.437c.702.18 1.449.255 2.242.043l.181-.444.107.445c.242.171.476.171.702-.001a1.661 1.661 0 0 0-.774-1.457zM14.517 29.981l1.285-.077v.552l1.221.846a.344.344 0 0 1-.195.628h-1.53l-.264-.546-.103.546h-.577l.162-1.949zM7.439 29.417l1.263.251-.139.534.969 1.127a.349.349 0 0 1-.134.545.341.341 0 0 1-.214.013l-1.48-.387-.118-.595-.237.502-.558-.146.647-1.845zM7.704 27.9l2.382-4.909.748-5.975c-.516-.96.442-2.914.442-2.914v-.82l3.709.702a17.88 17.88 0 0 1 1.085 6.482l-.149 7.942h.047a.292.292 0 0 1 .293.294.294.294 0 0 1-.293.294h-1.467a.292.292 0 0 1-.293-.294.294.294 0 0 1 .293-.294h.038l-1.053-10.104-1.224 4.986-2.959 4.591a.292.292 0 0 1 .27.305.295.295 0 0 1-.293.282H7.813a.29.29 0 0 1-.288-.238.294.294 0 0 1 .18-.329z" style="fill:var(--color10, #2f2e41)"/>
            <path fill="#3f3d56" d="M10.941 14.605a.236.236 0 0 1 .211-.177c.049-.56.372-4.155.384-4.26v-.004l.094-2.004a.294.294 0 0 1 .276-.282l.494-.032c.007 0 .013-.003.018-.008s.007-.011.007-.018a.41.41 0 0 1 .122-.294.41.41 0 0 1 .294-.122h1.463a.393.393 0 0 1 .386.342c.001.006.004.013.009.017s.011.007.018.006a.695.695 0 0 1 .699.578c.2 1.167.601 3.814.403 5.286-.069.512-.038 1.283-.012 1.712a.316.316 0 0 1-.078.229.235.235 0 0 1-.123.453l-4.495-1.136a.236.236 0 0 1-.17-.285z" style="fill:var(--color7, #3f3d56)"/>
            <path fill="#cacaca" d="M24.559 32H.07c-.019 0-.036-.007-.049-.021a.071.071 0 0 1 0-.099.067.067 0 0 1 .049-.021h24.489c.018 0 .036.007.049.021s.02.031.02.05c0 .019-.007.036-.02.049s-.031.021-.049.021z" style="fill:var(--color14, #cacaca)"/>
            <path fill="#9e616a" d="M11.148 17.985a.587.587 0 0 0 .165-.457.588.588 0 0 0-.244-.42l.912-4.541-1.007.324-.73 4.392c-.072.121-.098.265-.072.404a.577.577 0 0 0 .977.298z" style="fill:var(--color12, #9e616a)"/>
            <path fill="#3f3d56" d="m12.494 8.378-.625-.473s-.551-.039-.649.957-.298 2.938-.298 2.938l-.956 4.439 1.323.291 1.024-4.791.614-1.423-.434-1.94z" style="fill:var(--color7, #3f3d56)"/>
            <path fill="#9e616a" d="M20.608 9.664a.584.584 0 0 0-.67.195.563.563 0 0 0-.1.228l-4.516.974.698.796 4.308-1.082a.579.579 0 0 0 .586-.838.574.574 0 0 0-.305-.273z" style="fill:var(--color12, #9e616a)"/>
            <path fill="#3f3d56" d="M14.612 12.122a1.247 1.247 0 0 1-.316-.503l-.825-2.486A1.046 1.046 0 0 1 14.759 7.8a1.041 1.041 0 0 1 .744.949l.101 1.956 3.333-.489.866.798-.047.016c-.184.063-4.396 1.494-5.094 1.129a.234.234 0 0 1-.051-.036z" style="fill:var(--color7, #3f3d56)"/>
            <path fill="#f0af2e" d="M20.74 8.08h-.017a.419.419 0 0 1-.342-.196 4.809 4.809 0 0 0-1.012-1.099c-.237-.19-.486-.367-.726-.538-.619-.441-1.202-.857-1.526-1.432-.706-1.253.125-2.997 1.313-3.78C19.762.157 21.513.02 23.208.002a50.25 50.25 0 0 1 9.631.832c.998.185 2.044.411 2.883.96.835.546 1.342 1.405 1.293 2.19-.072 1.145-1.283 2.001-2.386 2.225-1.051.213-2.143.069-3.299-.083a55.221 55.221 0 0 0-.78-.099c-2.835-.329-8.162.684-8.387.728l-.224.043-.867 1.119a.421.421 0 0 1-.332.164z" style="fill:var(--color4, #f0af2e)"/>
            <path fill="#fff" d="M33.366 2.493H21.382a.26.26 0 0 1-.26-.262.26.26 0 0 1 .26-.262h11.984a.26.26 0 0 1 .26.262.26.26 0 0 1-.26.262zM33.366 4.098H21.382a.266.266 0 0 1-.185-.077.26.26 0 0 1-.057-.285.26.26 0 0 1 .242-.162h11.985a.26.26 0 0 1 .26.262.26.26 0 0 1-.26.262zM22.778 5.703h-1.397a.26.26 0 0 1-.26-.262c0-.069.028-.136.076-.185s.115-.077.184-.077h1.397a.26.26 0 0 1 .26.262c0 .069-.028.136-.076.185s-.115.077-.184.077z" style="fill:var(--color2, #fff)"/>
        </symbol>
        <symbol id="icon-bodies" viewBox="0 0 50 32">
            <path fill="#2f2e41" d="M43.784 29.546c1.607-1.602 1.607-4.199 0-5.801s-4.212-1.602-5.819 0c-1.607 1.602-1.607 4.199 0 5.801s4.212 1.602 5.819 0z" style="fill:var(--color10, #2f2e41)"/>
            <path fill="#fff" d="M40.852 27.023a1.402 1.402 0 1 0-.608-2.738 1.401 1.401 0 1 0 .608 2.738z" style="fill:var(--color2, #fff)"/>
            <path fill="#3f3d56" d="M40.08 25.748a.467.467 0 1 0-.203-.912.467.467 0 1 0 .203.912z" style="fill:var(--color7, #3f3d56)"/>
            <path fill="#f0af2e" d="M40.712 23.872c-1.683-.003-2.864-.303-2.861-1.823s1.369-2.749 3.052-2.746c1.683.003 3.044 1.238 3.042 2.757s-1.55 1.814-3.232 1.811z" style="fill:var(--color4, #f0af2e)"/>
            <path fill="#e6e6e6" d="M47.324 27.331c-.483 1.669-1.892 2.838-3.362 3.83-.205.139-.411.274-.616.406l-.004.003-.029.019-.127.082.023.01s.023.012-.002.002l-.022-.009c-.854-.343-1.723-.712-2.378-1.355-.679-.668-1.076-1.716-.708-2.593a1.655 1.655 0 0 1 .277-.449 1.803 1.803 0 0 1 3.093.546c.108-1.002-.721-1.842-1.519-2.462s-1.705-1.294-1.86-2.291c-.086-.555.107-1.092.46-1.524l.033-.039a2.638 2.638 0 0 1 1.69-.904c1.224-.127 2.413.519 3.302 1.368 1.431 1.365 2.297 3.462 1.748 5.36z" style="fill:var(--color8, #e6e6e6)"/>
            <path fill="#fff" d="M45.023 25.148c.235.364.415.761.535 1.177.102.372.147.757.134 1.143a4.95 4.95 0 0 1-.651 2.256 7.112 7.112 0 0 1-1.08 1.438c-.205.139-.411.274-.616.406l-.004.003-.029.019-.127.082s.046.022.021.012l-.022-.009a3.947 3.947 0 0 0-1.266-3.395 3.986 3.986 0 0 0-1.638-.879 2.24 2.24 0 0 1 .095-.123c.235.066.463.152.683.258a4.052 4.052 0 0 1 1.833 1.761c.364.697.52 1.484.451 2.267l.104-.096c.649-.603 1.225-1.296 1.616-2.094a4.599 4.599 0 0 0 .484-2.182c-.032-.824-.361-1.587-.838-2.252a9.7 9.7 0 0 0-1.835-1.886 11.03 11.03 0 0 0-2.282-1.405c-.018-.008-.033-.024-.04-.043s-.007-.04 0-.058a.064.064 0 0 1 .033-.039c.008-.003.017-.005.026-.005s.017.003.025.007a11.14 11.14 0 0 1 2.599 1.654c.677.575 1.314 1.232 1.79 1.985z" style="fill:var(--color2, #fff)"/>
            <path fill="#2f2e41" d="M7.042 31.957c.575 0 1.042-.174 1.042-.389s-.466-.389-1.042-.389S6 31.353 6 31.568c0 .215.466.389 1.042.389zM9.542 31.905c.575 0 1.042-.174 1.042-.389s-.466-.389-1.042-.389c-.575 0-1.042.174-1.042.389s.466.389 1.042.389zM12.861 25.36c.984-.566 1.638-1.274 1.46-1.582s-1.12-.099-2.105.467c-.984.566-1.638 1.274-1.46 1.582s1.12.099 2.105-.467z" style="fill:var(--color10, #2f2e41)"/>
            <path fill="#2f2e41" d="M11.937 26.747c.364-2.236-1.159-4.343-3.402-4.706s-4.356 1.156-4.72 3.392c-.364 2.236 1.159 4.343 3.402 4.706s4.356-1.156 4.72-3.392z" style="fill:var(--color10, #2f2e41)"/>
            <path fill="#2f2e41" d="M7.251 29.309h-1.25v2.233h1.25v-2.233zM9.751 29.309h-1.25v2.233h1.25v-2.233z" style="fill:var(--color10, #2f2e41)"/>
            <path fill="#fff" d="M7.98 26.454c.777 0 1.406-.628 1.406-1.402s-.63-1.402-1.406-1.402c-.777 0-1.406.628-1.406 1.402s.63 1.402 1.406 1.402z" style="fill:var(--color2, #fff)"/>
            <path fill="#3f3d56" d="M7.98 25.519a.468.468 0 1 0 .002-.936.468.468 0 0 0-.002.936z" style="fill:var(--color7, #3f3d56)"/>
            <path fill="#e6e6e6" d="M3.884 22.276c-.332-1.483.73-2.982 2.372-3.347s3.243.54 3.575 2.024-.756 2.03-2.398 2.396c-1.642.366-3.216.411-3.549-1.072z" style="fill:var(--color8, #e6e6e6)"/>
            <path fill="#2f2e41" d="M5.1 25.066c.153-.321-.555-.975-1.582-1.461s-1.983-.618-2.136-.297c-.153.321.555.975 1.582 1.46s1.983.618 2.136.297z" style="fill:var(--color10, #2f2e41)"/>
            <path fill="#fff" d="M5.855 27.57c0 .402 1.037 1.194 2.187 1.194s2.229-1.13 2.229-1.532c0-.401-1.079.078-2.229.078s-2.187-.142-2.187.26z" style="fill:var(--color2, #fff)"/>
            <path fill="#2f2e41" d="M22.222 31.957c.575 0 1.042-.174 1.042-.389s-.466-.389-1.042-.389c-.575 0-1.042.174-1.042.389s.466.389 1.042.389zM19.722 31.905c.575 0 1.042-.174 1.042-.389s-.466-.389-1.042-.389c-.575 0-1.042.174-1.042.389s.466.389 1.042.389zM18.509 25.827c.178-.308-.475-1.016-1.46-1.582s-1.927-.775-2.105-.467c-.178.308.475 1.016 1.46 1.582s1.927.775 2.105.467z" style="fill:var(--color10, #2f2e41)"/>
            <path fill="#2f2e41" d="M21.389 30.192c2.272 0 4.114-1.836 4.114-4.102s-1.842-4.102-4.114-4.102-4.115 1.836-4.115 4.102 1.842 4.102 4.115 4.102z" style="fill:var(--color10, #2f2e41)"/>
            <path fill="#2f2e41" d="M23.264 29.309h-1.25v2.233h1.25v-2.233zM20.764 29.309h-1.25v2.233h1.25v-2.233z" style="fill:var(--color10, #2f2e41)"/>
            <path fill="#fff" d="M20.425 26.454c.777 0 1.406-.628 1.406-1.402s-.63-1.402-1.406-1.402c-.777 0-1.406.628-1.406 1.402s.63 1.402 1.406 1.402z" style="fill:var(--color2, #fff)"/>
            <path fill="#3f3d56" d="M20.086 25.19a.465.465 0 1 0-.659-.658.465.465 0 1 0 .659.658z" style="fill:var(--color7, #3f3d56)"/>
            <path fill="#f0af2e" d="M21.831 23.348c-1.642-.365-2.731-.912-2.398-2.396s1.933-2.389 3.575-2.024c1.642.365 2.704 1.864 2.372 3.347s-1.906 1.438-3.549 1.072z" style="fill:var(--color4, #f0af2e)"/>
            <path fill="#2f2e41" d="M25.692 29.217c.345-.091.388-1.053.096-2.147s-.808-1.908-1.152-1.817-.388 1.053-.096 2.147c.292 1.095.808 1.908 1.152 1.817z" style="fill:var(--color10, #2f2e41)"/>
            <path fill="#fff" d="M20.457 27.31c-.755 0-1.464-.479-1.464-.078s.708 1.532 1.464 1.532c.755 0 1.436-.793 1.436-1.194s-.681-.26-1.436-.26z" style="fill:var(--color2, #fff)"/>
            <path fill="#f0af2e" d="M15.14 19.289h-.365a1.238 1.238 0 0 1-1.235-1.231v-.306c0-.757.144-1.392.428-1.885a9.93 9.93 0 0 1 1.198-1.605c.3-.301.573-.629.815-.979.173-.272.263-.589.257-.911 0-.76-.497-1.129-1.518-1.129a6.188 6.188 0 0 0-1.673.25 1.407 1.407 0 0 1-1.795-1.351v-.619a1.373 1.373 0 0 1 .815-1.263 7.494 7.494 0 0 1 3.039-.596c1.093 0 2.08.183 2.934.544.855.362 1.53.872 2.007 1.517a3.64 3.64 0 0 1 .72 2.214c0 .855-.234 1.6-.696 2.214-.457.608-1.112 1.273-1.947 1.977-.44.365-.857.756-1.248 1.172a2.163 2.163 0 0 0-.519.963 1.23 1.23 0 0 1-1.216 1.022zM14.936 25.077h-.048a2.289 2.289 0 0 1-2.287-2.281c0-.605.241-1.185.67-1.613s1.01-.668 1.617-.669h.048a2.307 2.307 0 0 1 1.619.667 2.272 2.272 0 0 1 .496 2.486 2.287 2.287 0 0 1-2.115 1.407z" style="fill:var(--color4, #f0af2e)"/>
            <path fill="#ccc" d="M29.807 32H.096c-.025 0-.05-.01-.068-.028a.095.095 0 0 1 .068-.162h29.711c.025 0 .05.01.068.028a.095.095 0 0 1-.068.162zM49.869 32H34.01c-.025 0-.05-.01-.068-.028a.095.095 0 0 1 .068-.162h15.859c.025 0 .05.01.068.028a.095.095 0 0 1-.068.162z" style="fill:var(--color11, #ccc)"/>
            <path fill="#2f2e41" d="M40.026 29.218c1.136-.022 2.051-.328 2.044-.684s-.933-.626-2.07-.604c-1.136.022-2.051.328-2.044.684s.933.626 2.069.604z" style="fill:var(--color10, #2f2e41)"/>
            <path fill="#f2f2f2" d="M38.994 14.19H36.51a.477.477 0 0 1-.478-.477v-2.476a.48.48 0 0 1 .478-.477h2.484a.477.477 0 0 1 .478.477v2.476a.48.48 0 0 1-.478.477zm-2.484-3.238a.287.287 0 0 0-.287.286v2.476a.285.285 0 0 0 .287.286h2.484a.287.287 0 0 0 .287-.286v-2.476a.285.285 0 0 0-.287-.286H36.51z" style="fill:var(--color6, #f2f2f2)"/>
            <path fill="#f2f2f2" d="M40.14 12.571h-2.484a.477.477 0 0 1-.478-.477V9.618a.48.48 0 0 1 .478-.477h2.484a.477.477 0 0 1 .478.477v2.476a.48.48 0 0 1-.478.477zm-2.484-3.238a.287.287 0 0 0-.287.286v2.476a.285.285 0 0 0 .287.286h2.484a.287.287 0 0 0 .287-.286V9.619a.285.285 0 0 0-.287-.286h-2.484zM20.555 4.667h-2.484a.477.477 0 0 1-.478-.477V1.714a.48.48 0 0 1 .478-.477h2.484a.477.477 0 0 1 .478.477V4.19a.48.48 0 0 1-.478.477zm-2.483-3.238a.287.287 0 0 0-.287.286v2.476a.285.285 0 0 0 .287.286h2.484a.287.287 0 0 0 .287-.286V1.715a.285.285 0 0 0-.287-.286h-2.484z" style="fill:var(--color6, #f2f2f2)"/>
            <path fill="#f2f2f2" d="M19.027 3.429h-2.484a.477.477 0 0 1-.478-.477V.476a.48.48 0 0 1 .478-.477h2.484a.477.477 0 0 1 .478.477v2.476a.48.48 0 0 1-.478.477zM16.543.19a.287.287 0 0 0-.287.286v2.476a.285.285 0 0 0 .287.286h2.484a.287.287 0 0 0 .287-.286V.476a.285.285 0 0 0-.287-.286h-2.484zM30.688 18.061c.341 0 .618-.276.618-.616a.617.617 0 0 0-1.236 0c0 .34.277.616.618.616zM5.849 15.87c.341 0 .618-.276.618-.616a.617.617 0 0 0-1.236 0c0 .34.277.616.618.616zM47.502 21.203c.341 0 .618-.276.618-.616a.617.617 0 0 0-1.236 0c0 .34.277.616.618.616z" style="fill:var(--color6, #f2f2f2)"/>
        </symbol>
        <symbol id="icon-1311" viewBox="0 0 32 32">
            <path fill="none" stroke="#f0af2e" stroke-linecap="round" stroke-width="1.208" d="M11.032 27.032c6.093 2.713 13.23-.027 15.943-6.12s-.027-13.23-6.12-15.943c-6.093-2.713-13.23.027-15.943 6.12s.027 13.23 6.12 15.943z" style="stroke:var(--color1, #f0af2e)"/>
            <path fill="#f0af2e" stroke="#f0af2e" stroke-linecap="round" stroke-width="3.019" d="M13.49 11.864a1.219 1.219 0 1 0 .991-2.226 1.219 1.219 0 0 0-.991 2.226zM20.359 14.966a1.219 1.219 0 1 0 .991-2.226 1.219 1.219 0 0 0-.991 2.226z" style="fill:var(--color1, #f0af2e);stroke:var(--color1, #f0af2e)"/>
            <path fill="#f0af2e" d="M17.438 21.465c-.696 1.564-2.802 2.148-4.703 1.302s-2.876-2.802-2.179-4.366 2.802-2.148 4.703-1.302c1.901.846 2.876 2.802 2.179 4.366z" style="fill:var(--color1, #f0af2e)"/>
        </symbol>
        <symbol id="icon-VectorTop" viewBox="0 0 21 32">
            <path fill="none" stroke="#fff" stroke-linecap="round" stroke-linejoin="round" stroke-width="2.824" d="M10.353 30.118V1.883m0-.001 8.471 10.588M10.353 1.882 1.882 12.47" style="stroke:var(--color1, #fff)"/>
        </symbol>
        
        <symbol id="icon-girpinphonePC" viewBox="0 0 38 32">
            <path fill="#2f2e43" d="M21.802 31.83H11.086c-1.396 0-2.532-1.105-2.532-2.464V2.464C8.554 1.105 9.69 0 11.086 0h10.716c1.396 0 2.532 1.105 2.532 2.464v26.902c0 1.359-1.136 2.464-2.532 2.464v.001z" style="fill:var(--color1, #2f2e43)"/>
            <path fill="#fff" d="M21.813 31.165H11.075c-1.048 0-1.9-.83-1.9-1.849V2.363c0-1.019.853-1.849 1.9-1.849h10.738c1.048 0 1.9.83 1.9 1.849v26.953c0 1.019-.853 1.849-1.9 1.849z" style="fill:var(--color2, #fff)"/>
            <path fill="#2f2e43" d="M18.121 2.267h-3.417c-.394 0-.714-.312-.714-.695s.321-.695.714-.695h3.417c.394 0 .714.312.714.695s-.321.695-.714.695zM18.724 13.388l-1.062-.804s-1.212.368-1.243.383-1.881 4.189-1.881 4.189 4.738 2.359 4.391 2.129c-.346-.229-.275-3.339.047-3.745.323-.406.047-1.425.047-1.425l-.299-.727h-.002l.001-.001z" style="fill:var(--color1, #2f2e43)"/>
            <path fill="#f3a3a6" d="M15.788 15.269h1.44v2.223l-1.588-.508.148-1.716z" style="fill:var(--color3, #f3a3a6)"/>
            <path fill="#f0af2e" d="M18.92 20.535a6.246 6.246 0 0 1-3.813.273 6.211 6.211 0 0 1-1.088-.373l.092-.437.243-1.158.285-1.353.053-.255.126-.6.002-.008h2.881l.002.005.768 2.458.321 1.03.13.418-.001-.001z" style="fill:var(--color4, #f0af2e)"/>
            <path fill="#f0af2e" d="M19.902 20.035a6.083 6.083 0 0 1-1.634.721l-.496-2.005-.527-2.126h.001l.137-.001c.08 0 .191.001.319.005.308.011.715.041 1.033.122.246.062.438.153.494.288.055.133.282 1.156.576 2.538l.098.458h.001z" style="fill:var(--color4, #f0af2e)"/>
            <path fill="#f3a3a6" d="M17.031 15.883c.874 0 1.582-.689 1.582-1.539s-.708-1.539-1.582-1.539c-.874 0-1.582.689-1.582 1.539s.708 1.539 1.582 1.539z" style="fill:var(--color3, #f3a3a6)"/>
            <path fill="#2f2e43" d="M19.002 14.062v.002l-.388.065a3.069 3.069 0 0 0-.069-.231 2.276 2.276 0 0 0-.094-.232 1.17 1.17 0 0 0-.276-.384c-.364-.321-.767-.108-.821-.118-.071-.014-1.021.989-1.142 2.105a2.132 2.132 0 0 0-.007.375l.001.014c.025.381-.112.699-.314.958l-.007.008a2.159 2.159 0 0 1-.235.251c-.24.219-.511.378-.713.479a2.91 2.91 0 0 1-.306.134s-.257.47-.278 1.351c-.008.369.025.81.136 1.32.023.106.049.214.079.326.017.062.032.123.045.182a6.211 6.211 0 0 1-1.438-.694c.067-.156.132-.292.189-.4.039-.073.073-.133.101-.176.346-.537.11-1.47.11-1.47-.535-.459.094-1.47.094-1.47s-.111-1.348.22-1.608c.331-.261.346-.904.346-.904.583-2.466 2.487-1.991 2.487-1.991 2.396-.256 2.282 2.027 2.277 2.108l-.001.002z" style="fill:var(--color1, #2f2e43)"/>
            <path fill="#f0af2e" d="m16.077 16.634-.106.456-.162.697-.702 3.021a6.211 6.211 0 0 1-1.539-.599l.095-.449c.327-1.544.586-2.717.645-2.86.056-.136.234-.215.458-.258l.051-.009.049-.008c.263-.038.568-.035.807-.023.083.004.157.01.219.014l.091.008.094.01h-.001z" style="fill:var(--color4, #f0af2e)"/>
            <path fill="#2f2e43" d="M16.587 21.09a6.392 6.392 0 0 1-2.614-.559 6.342 6.342 0 0 1-.858-.47c-1.737-1.134-2.775-3.022-2.775-5.05 0-3.352 2.802-6.079 6.248-6.079s6.248 2.727 6.248 6.079c0 2.074-1.074 3.985-2.872 5.113a6.268 6.268 0 0 1-1.664.734 6.385 6.385 0 0 1-1.711.232l-.001-.001zm0-11.944c-3.323 0-6.027 2.631-6.027 5.865 0 1.957 1.001 3.778 2.677 4.873.124.081.253.159.385.231a5.997 5.997 0 0 0 1.511.589 6.185 6.185 0 0 0 3.746-.268c.335-.135.66-.3.964-.491 1.736-1.088 2.772-2.932 2.772-4.933 0-3.234-2.704-5.865-6.027-5.865h-.001zM0 31.909c0 .05.059.091.133.091h38.006c.073 0 .133-.04.133-.091s-.059-.091-.133-.091H.133c-.073 0-.133.04-.133.091z" style="fill:var(--color1, #2f2e43)"/>
            <path fill="#f3a3a6" d="M23.937 17.202c.117-.112.262-.195.421-.241l1.162-1.232.613.571-1.245 1.189a.967.967 0 0 1-.264.397c-.298.277-.693.348-.882.159s-.102-.567.195-.843h.001v-.001z" style="fill:var(--color3, #f3a3a6)"/>
            <path fill="#d5d5d6" d="m24.421 16.647.617.755 3.189-2.349.003-.005 1.863-3.384a1.143 1.143 0 0 0-.368-1.5c-.303-.206-.68-.264-1.033-.158s-.632.359-.764.695l-1.209 3.079-2.297 2.866z" style="fill:var(--color5, #d5d5d6)"/>
            <path fill="#f3a3a6" d="M29.671 8.821h-1.3v2.007l1.433-.458-.133-1.548z" style="fill:var(--color3, #f3a3a6)"/>
            <path fill="#f3a3a6" d="M27.121 7.987c0 .767.639 1.389 1.428 1.389s1.428-.622 1.428-1.389c0-.768-.639-1.389-1.428-1.389s-1.428.622-1.428 1.389z" style="fill:var(--color3, #f3a3a6)"/>
            <path fill="#2f2e43" d="m29.559 8.875.139.257.615-1.137c.37-1.103-.923-1.737-.923-1.737-.422-.483-1.27.082-1.27.082-1.223-.264-.632.739-.632.739s.417.009.417.337c0 .329.454.306.454.306l.356.606.197-.233c.731-.301.647.779.647.779z" style="fill:var(--color1, #2f2e43)"/>
            <path fill="#f3a3a6" d="M30.198 29.382h-1.153v1.592h1.153v-1.592z" style="fill:var(--color3, #f3a3a6)"/>
            <path fill="#2f2e43" d="M27.922 31.938c.506 0 1.245-.051 1.251-.052.198.017 1.185.093 1.234-.127a.912.912 0 0 0-.031-.442c-.095-.918-.131-.929-.151-.935-.034-.01-.132.036-.291.136l-.01.006-.002.011c-.003.014-.073.351-.408.3-.229-.035-.303-.085-.327-.109a.15.15 0 0 0 .061-.049c.025-.038.029-.086.013-.144-.043-.152-.172-.378-.177-.387l-.015-.026-1.311.861-.81.225a.206.206 0 0 0-.135.116.2.2 0 0 0 .053.229c.147.129.44.349.746.376.081.008.189.01.311.01h.001z" style="fill:var(--color1, #2f2e43)"/>
            <path fill="#f3a3a6" d="m32.64 26.995-.889.715 1.043 1.227.889-.715-1.043-1.227z" style="fill:var(--color3, #f3a3a6)"/>
            <path fill="#2f2e43" d="M32.561 30.375c.39-.314.926-.812.93-.816.164-.109.974-.663.867-.863-.097-.184-.287-.305-.313-.322-.675-.649-.708-.635-.729-.627-.033.013-.078.109-.136.285l-.003.011.006.01c.008.013.174.317-.117.484-.2.115-.289.123-.323.119a.137.137 0 0 0 .014-.076c-.006-.044-.034-.084-.084-.118a2.335 2.335 0 0 0-.391-.189l-.028-.011-.446 1.476-.476.676a.196.196 0 0 0-.027.174c.026.083.102.14.191.144.197.008.567-.004.821-.173a4.04 4.04 0 0 0 .246-.185zM27.138 17.103l1.758 12.726h1.319l.879-12.726h-3.956z" style="fill:var(--color1, #2f2e43)"/>
            <path fill="#2f2e43" d="m30.544 24.054 2.626 3.315-1.124.903-4.506-4.17-.403-6.999.806.701 2.601 6.25z" style="fill:var(--color1, #2f2e43)"/>
            <path fill="#d5d5d6" d="m27.943 9.617-.806 7.486h3.956l.307-2.43a6.854 6.854 0 0 0-.897-4.333l-.607-1.032-1.954.309z" style="fill:var(--color5, #d5d5d6)"/>
            <path fill="#f3a3a6" d="M27.588 19.23a.974.974 0 0 1 .281-.389l.532-1.591.801.273-.625 1.584a.938.938 0 0 1-.071.468c-.153.372-.482.597-.735.501s-.334-.474-.182-.846h-.001z" style="fill:var(--color3, #f3a3a6)"/>
            <path fill="#d5d5d6" d="m27.794 18.526.883.437 1.9-3.424v-.006l.253-3.831a1.168 1.168 0 0 0-.974-1.216 1.207 1.207 0 0 0-1.007.274 1.14 1.14 0 0 0-.399.942l.213 3.289-.868 3.534z" style="fill:var(--color5, #d5d5d6)"/>
        </symbol>
       
    </defs>
</svg>